%TF.GenerationSoftware,KiCad,Pcbnew,8.0.9-8.0.9-0~ubuntu22.04.1*%
%TF.CreationDate,2025-03-02T22:26:52+02:00*%
%TF.ProjectId,Project_1_LED_Touch,50726f6a-6563-4745-9f31-5f4c45445f54,1*%
%TF.SameCoordinates,Original*%
%TF.FileFunction,Legend,Bot*%
%TF.FilePolarity,Positive*%
%FSLAX46Y46*%
G04 Gerber Fmt 4.6, Leading zero omitted, Abs format (unit mm)*
G04 Created by KiCad (PCBNEW 8.0.9-8.0.9-0~ubuntu22.04.1) date 2025-03-02 22:26:52*
%MOMM*%
%LPD*%
G01*
G04 APERTURE LIST*
%ADD10C,0.100000*%
%ADD11C,0.010000*%
G04 APERTURE END LIST*
D10*
X171091353Y-130005752D02*
X170853258Y-130672419D01*
X170853258Y-130672419D02*
X170615163Y-130005752D01*
X169853258Y-130624800D02*
X169948496Y-130672419D01*
X169948496Y-130672419D02*
X170138972Y-130672419D01*
X170138972Y-130672419D02*
X170234210Y-130624800D01*
X170234210Y-130624800D02*
X170281829Y-130529561D01*
X170281829Y-130529561D02*
X170281829Y-130148609D01*
X170281829Y-130148609D02*
X170234210Y-130053371D01*
X170234210Y-130053371D02*
X170138972Y-130005752D01*
X170138972Y-130005752D02*
X169948496Y-130005752D01*
X169948496Y-130005752D02*
X169853258Y-130053371D01*
X169853258Y-130053371D02*
X169805639Y-130148609D01*
X169805639Y-130148609D02*
X169805639Y-130243847D01*
X169805639Y-130243847D02*
X170281829Y-130339085D01*
X169377067Y-130672419D02*
X169377067Y-130005752D01*
X169377067Y-130196228D02*
X169329448Y-130100990D01*
X169329448Y-130100990D02*
X169281829Y-130053371D01*
X169281829Y-130053371D02*
X169186591Y-130005752D01*
X169186591Y-130005752D02*
X169091353Y-130005752D01*
X168805638Y-130624800D02*
X168710400Y-130672419D01*
X168710400Y-130672419D02*
X168519924Y-130672419D01*
X168519924Y-130672419D02*
X168424686Y-130624800D01*
X168424686Y-130624800D02*
X168377067Y-130529561D01*
X168377067Y-130529561D02*
X168377067Y-130481942D01*
X168377067Y-130481942D02*
X168424686Y-130386704D01*
X168424686Y-130386704D02*
X168519924Y-130339085D01*
X168519924Y-130339085D02*
X168662781Y-130339085D01*
X168662781Y-130339085D02*
X168758019Y-130291466D01*
X168758019Y-130291466D02*
X168805638Y-130196228D01*
X168805638Y-130196228D02*
X168805638Y-130148609D01*
X168805638Y-130148609D02*
X168758019Y-130053371D01*
X168758019Y-130053371D02*
X168662781Y-130005752D01*
X168662781Y-130005752D02*
X168519924Y-130005752D01*
X168519924Y-130005752D02*
X168424686Y-130053371D01*
X167948495Y-130672419D02*
X167948495Y-130005752D01*
X167948495Y-129672419D02*
X167996114Y-129720038D01*
X167996114Y-129720038D02*
X167948495Y-129767657D01*
X167948495Y-129767657D02*
X167900876Y-129720038D01*
X167900876Y-129720038D02*
X167948495Y-129672419D01*
X167948495Y-129672419D02*
X167948495Y-129767657D01*
X167329448Y-130672419D02*
X167424686Y-130624800D01*
X167424686Y-130624800D02*
X167472305Y-130577180D01*
X167472305Y-130577180D02*
X167519924Y-130481942D01*
X167519924Y-130481942D02*
X167519924Y-130196228D01*
X167519924Y-130196228D02*
X167472305Y-130100990D01*
X167472305Y-130100990D02*
X167424686Y-130053371D01*
X167424686Y-130053371D02*
X167329448Y-130005752D01*
X167329448Y-130005752D02*
X167186591Y-130005752D01*
X167186591Y-130005752D02*
X167091353Y-130053371D01*
X167091353Y-130053371D02*
X167043734Y-130100990D01*
X167043734Y-130100990D02*
X166996115Y-130196228D01*
X166996115Y-130196228D02*
X166996115Y-130481942D01*
X166996115Y-130481942D02*
X167043734Y-130577180D01*
X167043734Y-130577180D02*
X167091353Y-130624800D01*
X167091353Y-130624800D02*
X167186591Y-130672419D01*
X167186591Y-130672419D02*
X167329448Y-130672419D01*
X166567543Y-130005752D02*
X166567543Y-130672419D01*
X166567543Y-130100990D02*
X166519924Y-130053371D01*
X166519924Y-130053371D02*
X166424686Y-130005752D01*
X166424686Y-130005752D02*
X166281829Y-130005752D01*
X166281829Y-130005752D02*
X166186591Y-130053371D01*
X166186591Y-130053371D02*
X166138972Y-130148609D01*
X166138972Y-130148609D02*
X166138972Y-130672419D01*
X164377067Y-130672419D02*
X164948495Y-130672419D01*
X164662781Y-130672419D02*
X164662781Y-129672419D01*
X164662781Y-129672419D02*
X164758019Y-129815276D01*
X164758019Y-129815276D02*
X164853257Y-129910514D01*
X164853257Y-129910514D02*
X164948495Y-129958133D01*
X163948495Y-130577180D02*
X163900876Y-130624800D01*
X163900876Y-130624800D02*
X163948495Y-130672419D01*
X163948495Y-130672419D02*
X163996114Y-130624800D01*
X163996114Y-130624800D02*
X163948495Y-130577180D01*
X163948495Y-130577180D02*
X163948495Y-130672419D01*
X163281829Y-129672419D02*
X163186591Y-129672419D01*
X163186591Y-129672419D02*
X163091353Y-129720038D01*
X163091353Y-129720038D02*
X163043734Y-129767657D01*
X163043734Y-129767657D02*
X162996115Y-129862895D01*
X162996115Y-129862895D02*
X162948496Y-130053371D01*
X162948496Y-130053371D02*
X162948496Y-130291466D01*
X162948496Y-130291466D02*
X162996115Y-130481942D01*
X162996115Y-130481942D02*
X163043734Y-130577180D01*
X163043734Y-130577180D02*
X163091353Y-130624800D01*
X163091353Y-130624800D02*
X163186591Y-130672419D01*
X163186591Y-130672419D02*
X163281829Y-130672419D01*
X163281829Y-130672419D02*
X163377067Y-130624800D01*
X163377067Y-130624800D02*
X163424686Y-130577180D01*
X163424686Y-130577180D02*
X163472305Y-130481942D01*
X163472305Y-130481942D02*
X163519924Y-130291466D01*
X163519924Y-130291466D02*
X163519924Y-130053371D01*
X163519924Y-130053371D02*
X163472305Y-129862895D01*
X163472305Y-129862895D02*
X163424686Y-129767657D01*
X163424686Y-129767657D02*
X163377067Y-129720038D01*
X163377067Y-129720038D02*
X163281829Y-129672419D01*
D11*
%TO.C,REF\u002A\u002A*%
X160752206Y-126099949D02*
X160777927Y-126115647D01*
X160804578Y-126137227D01*
X160804578Y-126784684D01*
X160777927Y-126806264D01*
X160746567Y-126823739D01*
X160710766Y-126824575D01*
X160679328Y-126804082D01*
X160675452Y-126799416D01*
X160669986Y-126789949D01*
X160665779Y-126776267D01*
X160662667Y-126755748D01*
X160660487Y-126725768D01*
X160659076Y-126683704D01*
X160658271Y-126626932D01*
X160657907Y-126552830D01*
X160657822Y-126458773D01*
X160657822Y-126137227D01*
X160684473Y-126115647D01*
X160708186Y-126100877D01*
X160731200Y-126094067D01*
X160752206Y-126099949D01*
G36*
X160752206Y-126099949D02*
G01*
X160777927Y-126115647D01*
X160804578Y-126137227D01*
X160804578Y-126784684D01*
X160777927Y-126806264D01*
X160746567Y-126823739D01*
X160710766Y-126824575D01*
X160679328Y-126804082D01*
X160675452Y-126799416D01*
X160669986Y-126789949D01*
X160665779Y-126776267D01*
X160662667Y-126755748D01*
X160660487Y-126725768D01*
X160659076Y-126683704D01*
X160658271Y-126626932D01*
X160657907Y-126552830D01*
X160657822Y-126458773D01*
X160657822Y-126137227D01*
X160684473Y-126115647D01*
X160708186Y-126100877D01*
X160731200Y-126094067D01*
X160752206Y-126099949D01*
G37*
X167882937Y-126098463D02*
X167917091Y-126121776D01*
X167944800Y-126149485D01*
X167944800Y-126462537D01*
X167944759Y-126546567D01*
X167944501Y-126620789D01*
X167943830Y-126677541D01*
X167942552Y-126719512D01*
X167940473Y-126749389D01*
X167937399Y-126769861D01*
X167933134Y-126783614D01*
X167927484Y-126793337D01*
X167920255Y-126801717D01*
X167888791Y-126823181D01*
X167853626Y-126824947D01*
X167820622Y-126805267D01*
X167815316Y-126799398D01*
X167809866Y-126790314D01*
X167805700Y-126776973D01*
X167802646Y-126756757D01*
X167800532Y-126727049D01*
X167799186Y-126685232D01*
X167798438Y-126628689D01*
X167798114Y-126554802D01*
X167798045Y-126460956D01*
X167798084Y-126385294D01*
X167798339Y-126307385D01*
X167798983Y-126247375D01*
X167800187Y-126202648D01*
X167802124Y-126170585D01*
X167804964Y-126148571D01*
X167808879Y-126133987D01*
X167814042Y-126124218D01*
X167820622Y-126116645D01*
X167849806Y-126097623D01*
X167882937Y-126098463D01*
G36*
X167882937Y-126098463D02*
G01*
X167917091Y-126121776D01*
X167944800Y-126149485D01*
X167944800Y-126462537D01*
X167944759Y-126546567D01*
X167944501Y-126620789D01*
X167943830Y-126677541D01*
X167942552Y-126719512D01*
X167940473Y-126749389D01*
X167937399Y-126769861D01*
X167933134Y-126783614D01*
X167927484Y-126793337D01*
X167920255Y-126801717D01*
X167888791Y-126823181D01*
X167853626Y-126824947D01*
X167820622Y-126805267D01*
X167815316Y-126799398D01*
X167809866Y-126790314D01*
X167805700Y-126776973D01*
X167802646Y-126756757D01*
X167800532Y-126727049D01*
X167799186Y-126685232D01*
X167798438Y-126628689D01*
X167798114Y-126554802D01*
X167798045Y-126460956D01*
X167798084Y-126385294D01*
X167798339Y-126307385D01*
X167798983Y-126247375D01*
X167800187Y-126202648D01*
X167802124Y-126170585D01*
X167804964Y-126148571D01*
X167808879Y-126133987D01*
X167814042Y-126124218D01*
X167820622Y-126116645D01*
X167849806Y-126097623D01*
X167882937Y-126098463D01*
G37*
X167351362Y-120857850D02*
X167434113Y-120885053D01*
X167509206Y-120930484D01*
X167581098Y-120996302D01*
X167619646Y-121040567D01*
X167659056Y-121098961D01*
X167684246Y-121159586D01*
X167697661Y-121228865D01*
X167701748Y-121313222D01*
X167701469Y-121359307D01*
X167699260Y-121400450D01*
X167693694Y-121432582D01*
X167683386Y-121463122D01*
X167666948Y-121499489D01*
X167653000Y-121526728D01*
X167594465Y-121612429D01*
X167522419Y-121681617D01*
X167438747Y-121732741D01*
X167345331Y-121764250D01*
X167312234Y-121771225D01*
X167271760Y-121778094D01*
X167238799Y-121779919D01*
X167204498Y-121776947D01*
X167160000Y-121769426D01*
X167108734Y-121757002D01*
X167018234Y-121719112D01*
X166939145Y-121664836D01*
X166873328Y-121596770D01*
X166822640Y-121517511D01*
X166788940Y-121429654D01*
X166774086Y-121335795D01*
X166779936Y-121238530D01*
X166806199Y-121142220D01*
X166851218Y-121053494D01*
X166912173Y-120978419D01*
X166986984Y-120918641D01*
X167073568Y-120875809D01*
X167169843Y-120851571D01*
X167273728Y-120847576D01*
X167351362Y-120857850D01*
G36*
X167351362Y-120857850D02*
G01*
X167434113Y-120885053D01*
X167509206Y-120930484D01*
X167581098Y-120996302D01*
X167619646Y-121040567D01*
X167659056Y-121098961D01*
X167684246Y-121159586D01*
X167697661Y-121228865D01*
X167701748Y-121313222D01*
X167701469Y-121359307D01*
X167699260Y-121400450D01*
X167693694Y-121432582D01*
X167683386Y-121463122D01*
X167666948Y-121499489D01*
X167653000Y-121526728D01*
X167594465Y-121612429D01*
X167522419Y-121681617D01*
X167438747Y-121732741D01*
X167345331Y-121764250D01*
X167312234Y-121771225D01*
X167271760Y-121778094D01*
X167238799Y-121779919D01*
X167204498Y-121776947D01*
X167160000Y-121769426D01*
X167108734Y-121757002D01*
X167018234Y-121719112D01*
X166939145Y-121664836D01*
X166873328Y-121596770D01*
X166822640Y-121517511D01*
X166788940Y-121429654D01*
X166774086Y-121335795D01*
X166779936Y-121238530D01*
X166806199Y-121142220D01*
X166851218Y-121053494D01*
X166912173Y-120978419D01*
X166986984Y-120918641D01*
X167073568Y-120875809D01*
X167169843Y-120851571D01*
X167273728Y-120847576D01*
X167351362Y-120857850D01*
G37*
X160052567Y-126094068D02*
X160146690Y-126094158D01*
X160221205Y-126094498D01*
X160278611Y-126095239D01*
X160321411Y-126096535D01*
X160352104Y-126098537D01*
X160373191Y-126101396D01*
X160387173Y-126105266D01*
X160396550Y-126110298D01*
X160403822Y-126116645D01*
X160422628Y-126149362D01*
X160424075Y-126186939D01*
X160407717Y-126220178D01*
X160406357Y-126221631D01*
X160395154Y-126229992D01*
X160378052Y-126235547D01*
X160350882Y-126238840D01*
X160309478Y-126240418D01*
X160249673Y-126240822D01*
X160110311Y-126240822D01*
X160110311Y-126504589D01*
X160110236Y-126580417D01*
X160109828Y-126647083D01*
X160108846Y-126696867D01*
X160107050Y-126732784D01*
X160104199Y-126757850D01*
X160100053Y-126775081D01*
X160094371Y-126787492D01*
X160086914Y-126798100D01*
X160084624Y-126800906D01*
X160053446Y-126823548D01*
X160019066Y-126825112D01*
X159986134Y-126805267D01*
X159979155Y-126797191D01*
X159973683Y-126786593D01*
X159969663Y-126770749D01*
X159966872Y-126746773D01*
X159965088Y-126711774D01*
X159964089Y-126662864D01*
X159963652Y-126597154D01*
X159963556Y-126511756D01*
X159963556Y-126240822D01*
X159817620Y-126240822D01*
X159806520Y-126240821D01*
X159750002Y-126240596D01*
X159711158Y-126239457D01*
X159685765Y-126236657D01*
X159669604Y-126231450D01*
X159658452Y-126223089D01*
X159648089Y-126210826D01*
X159632241Y-126180138D01*
X159635343Y-126146358D01*
X159660987Y-126113822D01*
X159665929Y-126110105D01*
X159676138Y-126105269D01*
X159691564Y-126101506D01*
X159714686Y-126098683D01*
X159747983Y-126096670D01*
X159793937Y-126095333D01*
X159855028Y-126094542D01*
X159933735Y-126094163D01*
X160032540Y-126094067D01*
X160052567Y-126094068D01*
G36*
X160052567Y-126094068D02*
G01*
X160146690Y-126094158D01*
X160221205Y-126094498D01*
X160278611Y-126095239D01*
X160321411Y-126096535D01*
X160352104Y-126098537D01*
X160373191Y-126101396D01*
X160387173Y-126105266D01*
X160396550Y-126110298D01*
X160403822Y-126116645D01*
X160422628Y-126149362D01*
X160424075Y-126186939D01*
X160407717Y-126220178D01*
X160406357Y-126221631D01*
X160395154Y-126229992D01*
X160378052Y-126235547D01*
X160350882Y-126238840D01*
X160309478Y-126240418D01*
X160249673Y-126240822D01*
X160110311Y-126240822D01*
X160110311Y-126504589D01*
X160110236Y-126580417D01*
X160109828Y-126647083D01*
X160108846Y-126696867D01*
X160107050Y-126732784D01*
X160104199Y-126757850D01*
X160100053Y-126775081D01*
X160094371Y-126787492D01*
X160086914Y-126798100D01*
X160084624Y-126800906D01*
X160053446Y-126823548D01*
X160019066Y-126825112D01*
X159986134Y-126805267D01*
X159979155Y-126797191D01*
X159973683Y-126786593D01*
X159969663Y-126770749D01*
X159966872Y-126746773D01*
X159965088Y-126711774D01*
X159964089Y-126662864D01*
X159963652Y-126597154D01*
X159963556Y-126511756D01*
X159963556Y-126240822D01*
X159817620Y-126240822D01*
X159806520Y-126240821D01*
X159750002Y-126240596D01*
X159711158Y-126239457D01*
X159685765Y-126236657D01*
X159669604Y-126231450D01*
X159658452Y-126223089D01*
X159648089Y-126210826D01*
X159632241Y-126180138D01*
X159635343Y-126146358D01*
X159660987Y-126113822D01*
X159665929Y-126110105D01*
X159676138Y-126105269D01*
X159691564Y-126101506D01*
X159714686Y-126098683D01*
X159747983Y-126096670D01*
X159793937Y-126095333D01*
X159855028Y-126094542D01*
X159933735Y-126094163D01*
X160032540Y-126094067D01*
X160052567Y-126094068D01*
G37*
X159376534Y-126116645D02*
X159382166Y-126122835D01*
X159387256Y-126131041D01*
X159391343Y-126142817D01*
X159394521Y-126160276D01*
X159396887Y-126185530D01*
X159398538Y-126220690D01*
X159399569Y-126267869D01*
X159400077Y-126329177D01*
X159400159Y-126406727D01*
X159399909Y-126502631D01*
X159399425Y-126619000D01*
X159399357Y-126633175D01*
X159398771Y-126694937D01*
X159397448Y-126738620D01*
X159394903Y-126768001D01*
X159390648Y-126786855D01*
X159384196Y-126798959D01*
X159375062Y-126808089D01*
X159341604Y-126825506D01*
X159306656Y-126822604D01*
X159275753Y-126798100D01*
X159266744Y-126784897D01*
X159259292Y-126766361D01*
X159254924Y-126740333D01*
X159252869Y-126701787D01*
X159252356Y-126645700D01*
X159252356Y-126523045D01*
X158755645Y-126523045D01*
X158755645Y-126657871D01*
X158755572Y-126693662D01*
X158754809Y-126739992D01*
X158752633Y-126770526D01*
X158748336Y-126789557D01*
X158741212Y-126801374D01*
X158730555Y-126810271D01*
X158698304Y-126825341D01*
X158663017Y-126822673D01*
X158632286Y-126798100D01*
X158627631Y-126791845D01*
X158621695Y-126781321D01*
X158617164Y-126767391D01*
X158613848Y-126747317D01*
X158611559Y-126718360D01*
X158610108Y-126677780D01*
X158609305Y-126622840D01*
X158608962Y-126550799D01*
X158608889Y-126458920D01*
X158608889Y-126149485D01*
X158636598Y-126121776D01*
X158667977Y-126099533D01*
X158701206Y-126096844D01*
X158733067Y-126116645D01*
X158741353Y-126126415D01*
X158748765Y-126142307D01*
X158753102Y-126166275D01*
X158755138Y-126203148D01*
X158755645Y-126257756D01*
X158755645Y-126376289D01*
X159252356Y-126376289D01*
X159252356Y-126260776D01*
X159252794Y-126209078D01*
X159254758Y-126174554D01*
X159259274Y-126151978D01*
X159267367Y-126136126D01*
X159280065Y-126121776D01*
X159311443Y-126099533D01*
X159344672Y-126096844D01*
X159376534Y-126116645D01*
G36*
X159376534Y-126116645D02*
G01*
X159382166Y-126122835D01*
X159387256Y-126131041D01*
X159391343Y-126142817D01*
X159394521Y-126160276D01*
X159396887Y-126185530D01*
X159398538Y-126220690D01*
X159399569Y-126267869D01*
X159400077Y-126329177D01*
X159400159Y-126406727D01*
X159399909Y-126502631D01*
X159399425Y-126619000D01*
X159399357Y-126633175D01*
X159398771Y-126694937D01*
X159397448Y-126738620D01*
X159394903Y-126768001D01*
X159390648Y-126786855D01*
X159384196Y-126798959D01*
X159375062Y-126808089D01*
X159341604Y-126825506D01*
X159306656Y-126822604D01*
X159275753Y-126798100D01*
X159266744Y-126784897D01*
X159259292Y-126766361D01*
X159254924Y-126740333D01*
X159252869Y-126701787D01*
X159252356Y-126645700D01*
X159252356Y-126523045D01*
X158755645Y-126523045D01*
X158755645Y-126657871D01*
X158755572Y-126693662D01*
X158754809Y-126739992D01*
X158752633Y-126770526D01*
X158748336Y-126789557D01*
X158741212Y-126801374D01*
X158730555Y-126810271D01*
X158698304Y-126825341D01*
X158663017Y-126822673D01*
X158632286Y-126798100D01*
X158627631Y-126791845D01*
X158621695Y-126781321D01*
X158617164Y-126767391D01*
X158613848Y-126747317D01*
X158611559Y-126718360D01*
X158610108Y-126677780D01*
X158609305Y-126622840D01*
X158608962Y-126550799D01*
X158608889Y-126458920D01*
X158608889Y-126149485D01*
X158636598Y-126121776D01*
X158667977Y-126099533D01*
X158701206Y-126096844D01*
X158733067Y-126116645D01*
X158741353Y-126126415D01*
X158748765Y-126142307D01*
X158753102Y-126166275D01*
X158755138Y-126203148D01*
X158755645Y-126257756D01*
X158755645Y-126376289D01*
X159252356Y-126376289D01*
X159252356Y-126260776D01*
X159252794Y-126209078D01*
X159254758Y-126174554D01*
X159259274Y-126151978D01*
X159267367Y-126136126D01*
X159280065Y-126121776D01*
X159311443Y-126099533D01*
X159344672Y-126096844D01*
X159376534Y-126116645D01*
G37*
X164081933Y-126705396D02*
X164079963Y-126738175D01*
X164077035Y-126761095D01*
X164072958Y-126776897D01*
X164067543Y-126788319D01*
X164060603Y-126798100D01*
X164037206Y-126827845D01*
X163871514Y-126827251D01*
X163836718Y-126826953D01*
X163738235Y-126823522D01*
X163657273Y-126815839D01*
X163590179Y-126803282D01*
X163533296Y-126785227D01*
X163482969Y-126761052D01*
X163479610Y-126759135D01*
X163421798Y-126722417D01*
X163379444Y-126685451D01*
X163346628Y-126641966D01*
X163317428Y-126585689D01*
X163313146Y-126576073D01*
X163290569Y-126512887D01*
X163284834Y-126467333D01*
X163434079Y-126467333D01*
X163439692Y-126492061D01*
X163445418Y-126507939D01*
X163478348Y-126567847D01*
X163525686Y-126613600D01*
X163589452Y-126646736D01*
X163671661Y-126668790D01*
X163674455Y-126669292D01*
X163720740Y-126675255D01*
X163777136Y-126679483D01*
X163832074Y-126681089D01*
X163925956Y-126681089D01*
X163925956Y-126240822D01*
X163838467Y-126241270D01*
X163771547Y-126243746D01*
X163679149Y-126254998D01*
X163599834Y-126274537D01*
X163537860Y-126301511D01*
X163506920Y-126322240D01*
X163478800Y-126352006D01*
X163455460Y-126394434D01*
X163448333Y-126410400D01*
X163436509Y-126442902D01*
X163434079Y-126467333D01*
X163284834Y-126467333D01*
X163283597Y-126457509D01*
X163292199Y-126402483D01*
X163316341Y-126340351D01*
X163317137Y-126338658D01*
X163357588Y-126269236D01*
X163408273Y-126212638D01*
X163470998Y-126168070D01*
X163547574Y-126134741D01*
X163639809Y-126111861D01*
X163749512Y-126098636D01*
X163878491Y-126094275D01*
X163882063Y-126094270D01*
X163942083Y-126094410D01*
X163984014Y-126095446D01*
X164012128Y-126098040D01*
X164030697Y-126102853D01*
X164043994Y-126110544D01*
X164056291Y-126121776D01*
X164084000Y-126149485D01*
X164084000Y-126458920D01*
X164083975Y-126520526D01*
X164083750Y-126599311D01*
X164083132Y-126660021D01*
X164082575Y-126681089D01*
X164081933Y-126705396D01*
G36*
X164081933Y-126705396D02*
G01*
X164079963Y-126738175D01*
X164077035Y-126761095D01*
X164072958Y-126776897D01*
X164067543Y-126788319D01*
X164060603Y-126798100D01*
X164037206Y-126827845D01*
X163871514Y-126827251D01*
X163836718Y-126826953D01*
X163738235Y-126823522D01*
X163657273Y-126815839D01*
X163590179Y-126803282D01*
X163533296Y-126785227D01*
X163482969Y-126761052D01*
X163479610Y-126759135D01*
X163421798Y-126722417D01*
X163379444Y-126685451D01*
X163346628Y-126641966D01*
X163317428Y-126585689D01*
X163313146Y-126576073D01*
X163290569Y-126512887D01*
X163284834Y-126467333D01*
X163434079Y-126467333D01*
X163439692Y-126492061D01*
X163445418Y-126507939D01*
X163478348Y-126567847D01*
X163525686Y-126613600D01*
X163589452Y-126646736D01*
X163671661Y-126668790D01*
X163674455Y-126669292D01*
X163720740Y-126675255D01*
X163777136Y-126679483D01*
X163832074Y-126681089D01*
X163925956Y-126681089D01*
X163925956Y-126240822D01*
X163838467Y-126241270D01*
X163771547Y-126243746D01*
X163679149Y-126254998D01*
X163599834Y-126274537D01*
X163537860Y-126301511D01*
X163506920Y-126322240D01*
X163478800Y-126352006D01*
X163455460Y-126394434D01*
X163448333Y-126410400D01*
X163436509Y-126442902D01*
X163434079Y-126467333D01*
X163284834Y-126467333D01*
X163283597Y-126457509D01*
X163292199Y-126402483D01*
X163316341Y-126340351D01*
X163317137Y-126338658D01*
X163357588Y-126269236D01*
X163408273Y-126212638D01*
X163470998Y-126168070D01*
X163547574Y-126134741D01*
X163639809Y-126111861D01*
X163749512Y-126098636D01*
X163878491Y-126094275D01*
X163882063Y-126094270D01*
X163942083Y-126094410D01*
X163984014Y-126095446D01*
X164012128Y-126098040D01*
X164030697Y-126102853D01*
X164043994Y-126110544D01*
X164056291Y-126121776D01*
X164084000Y-126149485D01*
X164084000Y-126458920D01*
X164083975Y-126520526D01*
X164083750Y-126599311D01*
X164083132Y-126660021D01*
X164082575Y-126681089D01*
X164081933Y-126705396D01*
G37*
X171173617Y-126279427D02*
X171173670Y-126360041D01*
X171173422Y-126460956D01*
X171173383Y-126536617D01*
X171173128Y-126614526D01*
X171172484Y-126674536D01*
X171171280Y-126719264D01*
X171169343Y-126751326D01*
X171166503Y-126773340D01*
X171162588Y-126787924D01*
X171157426Y-126797694D01*
X171150845Y-126805267D01*
X171143877Y-126811501D01*
X171130879Y-126818801D01*
X171111731Y-126823554D01*
X171082328Y-126826292D01*
X171038562Y-126827545D01*
X170976328Y-126827845D01*
X170927382Y-126827469D01*
X170820522Y-126823041D01*
X170731294Y-126812953D01*
X170656496Y-126796365D01*
X170592925Y-126772435D01*
X170537379Y-126740321D01*
X170486654Y-126699182D01*
X170480666Y-126693330D01*
X170443799Y-126644821D01*
X170412699Y-126584013D01*
X170391217Y-126519769D01*
X170385936Y-126481026D01*
X170533153Y-126481026D01*
X170551435Y-126531961D01*
X170581105Y-126577878D01*
X170627802Y-126620287D01*
X170689192Y-126650090D01*
X170768338Y-126669226D01*
X170769828Y-126669464D01*
X170818799Y-126675256D01*
X170877493Y-126679396D01*
X170933534Y-126681004D01*
X171026667Y-126681089D01*
X171026667Y-126240822D01*
X170950467Y-126240808D01*
X170947439Y-126240817D01*
X170896319Y-126242782D01*
X170836216Y-126247507D01*
X170779508Y-126254035D01*
X170729550Y-126263331D01*
X170654798Y-126289600D01*
X170597289Y-126328899D01*
X170555788Y-126381933D01*
X170534571Y-126433200D01*
X170533153Y-126481026D01*
X170385936Y-126481026D01*
X170383200Y-126460956D01*
X170384479Y-126439739D01*
X170396791Y-126382323D01*
X170419320Y-126322413D01*
X170448550Y-126268363D01*
X170480967Y-126228532D01*
X170500508Y-126211510D01*
X170555220Y-126172322D01*
X170615523Y-126142193D01*
X170684719Y-126120232D01*
X170766111Y-126105550D01*
X170863000Y-126097259D01*
X170978689Y-126094467D01*
X171018171Y-126094066D01*
X171063882Y-126093653D01*
X171099683Y-126095457D01*
X171126774Y-126101739D01*
X171146356Y-126114759D01*
X171159630Y-126136778D01*
X171167798Y-126170055D01*
X171172060Y-126216851D01*
X171172657Y-126240822D01*
X171173617Y-126279427D01*
G36*
X171173617Y-126279427D02*
G01*
X171173670Y-126360041D01*
X171173422Y-126460956D01*
X171173383Y-126536617D01*
X171173128Y-126614526D01*
X171172484Y-126674536D01*
X171171280Y-126719264D01*
X171169343Y-126751326D01*
X171166503Y-126773340D01*
X171162588Y-126787924D01*
X171157426Y-126797694D01*
X171150845Y-126805267D01*
X171143877Y-126811501D01*
X171130879Y-126818801D01*
X171111731Y-126823554D01*
X171082328Y-126826292D01*
X171038562Y-126827545D01*
X170976328Y-126827845D01*
X170927382Y-126827469D01*
X170820522Y-126823041D01*
X170731294Y-126812953D01*
X170656496Y-126796365D01*
X170592925Y-126772435D01*
X170537379Y-126740321D01*
X170486654Y-126699182D01*
X170480666Y-126693330D01*
X170443799Y-126644821D01*
X170412699Y-126584013D01*
X170391217Y-126519769D01*
X170385936Y-126481026D01*
X170533153Y-126481026D01*
X170551435Y-126531961D01*
X170581105Y-126577878D01*
X170627802Y-126620287D01*
X170689192Y-126650090D01*
X170768338Y-126669226D01*
X170769828Y-126669464D01*
X170818799Y-126675256D01*
X170877493Y-126679396D01*
X170933534Y-126681004D01*
X171026667Y-126681089D01*
X171026667Y-126240822D01*
X170950467Y-126240808D01*
X170947439Y-126240817D01*
X170896319Y-126242782D01*
X170836216Y-126247507D01*
X170779508Y-126254035D01*
X170729550Y-126263331D01*
X170654798Y-126289600D01*
X170597289Y-126328899D01*
X170555788Y-126381933D01*
X170534571Y-126433200D01*
X170533153Y-126481026D01*
X170385936Y-126481026D01*
X170383200Y-126460956D01*
X170384479Y-126439739D01*
X170396791Y-126382323D01*
X170419320Y-126322413D01*
X170448550Y-126268363D01*
X170480967Y-126228532D01*
X170500508Y-126211510D01*
X170555220Y-126172322D01*
X170615523Y-126142193D01*
X170684719Y-126120232D01*
X170766111Y-126105550D01*
X170863000Y-126097259D01*
X170978689Y-126094467D01*
X171018171Y-126094066D01*
X171063882Y-126093653D01*
X171099683Y-126095457D01*
X171126774Y-126101739D01*
X171146356Y-126114759D01*
X171159630Y-126136778D01*
X171167798Y-126170055D01*
X171172060Y-126216851D01*
X171172657Y-126240822D01*
X171173617Y-126279427D01*
G37*
X166228693Y-126092892D02*
X166240101Y-126099029D01*
X166250650Y-126109691D01*
X166261936Y-126123811D01*
X166266389Y-126129772D01*
X166272388Y-126140268D01*
X166276967Y-126154093D01*
X166280319Y-126173998D01*
X166282633Y-126202732D01*
X166284101Y-126243045D01*
X166284913Y-126297687D01*
X166285260Y-126369407D01*
X166285334Y-126460956D01*
X166285311Y-126519486D01*
X166285092Y-126598573D01*
X166284483Y-126659516D01*
X166283292Y-126705062D01*
X166281329Y-126737963D01*
X166278403Y-126760968D01*
X166274323Y-126776826D01*
X166268897Y-126788286D01*
X166261936Y-126798100D01*
X166231508Y-126822493D01*
X166196565Y-126825372D01*
X166159584Y-126806282D01*
X166155400Y-126802807D01*
X166147224Y-126794279D01*
X166141164Y-126782728D01*
X166136781Y-126764896D01*
X166133639Y-126737524D01*
X166131302Y-126697354D01*
X166129331Y-126641128D01*
X166127289Y-126565589D01*
X166121645Y-126346458D01*
X165856356Y-126587099D01*
X165782522Y-126653875D01*
X165717342Y-126711991D01*
X165665148Y-126756949D01*
X165624073Y-126789871D01*
X165592255Y-126811879D01*
X165567826Y-126824094D01*
X165548924Y-126827639D01*
X165533683Y-126823636D01*
X165520239Y-126813207D01*
X165506727Y-126797474D01*
X165500482Y-126788991D01*
X165494850Y-126778413D01*
X165490639Y-126764255D01*
X165487687Y-126743803D01*
X165485832Y-126714342D01*
X165484913Y-126673161D01*
X165484768Y-126617544D01*
X165485235Y-126544779D01*
X165486152Y-126452151D01*
X165489467Y-126137199D01*
X165516118Y-126115633D01*
X165542183Y-126099441D01*
X165575041Y-126096670D01*
X165609572Y-126115623D01*
X165613884Y-126119208D01*
X165622016Y-126127737D01*
X165628045Y-126139329D01*
X165632406Y-126157235D01*
X165635534Y-126184706D01*
X165637863Y-126224994D01*
X165639829Y-126281351D01*
X165641867Y-126357029D01*
X165647511Y-126576878D01*
X165828134Y-126413084D01*
X165914872Y-126334451D01*
X165990643Y-126266058D01*
X166052780Y-126210708D01*
X166102878Y-126167338D01*
X166142535Y-126134881D01*
X166173348Y-126112273D01*
X166196914Y-126098448D01*
X166214830Y-126092343D01*
X166228693Y-126092892D01*
G36*
X166228693Y-126092892D02*
G01*
X166240101Y-126099029D01*
X166250650Y-126109691D01*
X166261936Y-126123811D01*
X166266389Y-126129772D01*
X166272388Y-126140268D01*
X166276967Y-126154093D01*
X166280319Y-126173998D01*
X166282633Y-126202732D01*
X166284101Y-126243045D01*
X166284913Y-126297687D01*
X166285260Y-126369407D01*
X166285334Y-126460956D01*
X166285311Y-126519486D01*
X166285092Y-126598573D01*
X166284483Y-126659516D01*
X166283292Y-126705062D01*
X166281329Y-126737963D01*
X166278403Y-126760968D01*
X166274323Y-126776826D01*
X166268897Y-126788286D01*
X166261936Y-126798100D01*
X166231508Y-126822493D01*
X166196565Y-126825372D01*
X166159584Y-126806282D01*
X166155400Y-126802807D01*
X166147224Y-126794279D01*
X166141164Y-126782728D01*
X166136781Y-126764896D01*
X166133639Y-126737524D01*
X166131302Y-126697354D01*
X166129331Y-126641128D01*
X166127289Y-126565589D01*
X166121645Y-126346458D01*
X165856356Y-126587099D01*
X165782522Y-126653875D01*
X165717342Y-126711991D01*
X165665148Y-126756949D01*
X165624073Y-126789871D01*
X165592255Y-126811879D01*
X165567826Y-126824094D01*
X165548924Y-126827639D01*
X165533683Y-126823636D01*
X165520239Y-126813207D01*
X165506727Y-126797474D01*
X165500482Y-126788991D01*
X165494850Y-126778413D01*
X165490639Y-126764255D01*
X165487687Y-126743803D01*
X165485832Y-126714342D01*
X165484913Y-126673161D01*
X165484768Y-126617544D01*
X165485235Y-126544779D01*
X165486152Y-126452151D01*
X165489467Y-126137199D01*
X165516118Y-126115633D01*
X165542183Y-126099441D01*
X165575041Y-126096670D01*
X165609572Y-126115623D01*
X165613884Y-126119208D01*
X165622016Y-126127737D01*
X165628045Y-126139329D01*
X165632406Y-126157235D01*
X165635534Y-126184706D01*
X165637863Y-126224994D01*
X165639829Y-126281351D01*
X165641867Y-126357029D01*
X165647511Y-126576878D01*
X165828134Y-126413084D01*
X165914872Y-126334451D01*
X165990643Y-126266058D01*
X166052780Y-126210708D01*
X166102878Y-126167338D01*
X166142535Y-126134881D01*
X166173348Y-126112273D01*
X166196914Y-126098448D01*
X166214830Y-126092343D01*
X166228693Y-126092892D01*
G37*
X167025950Y-126099179D02*
X167131957Y-126115494D01*
X167225769Y-126143545D01*
X167304565Y-126182452D01*
X167365519Y-126231334D01*
X167391589Y-126264195D01*
X167421097Y-126313394D01*
X167446368Y-126367252D01*
X167464018Y-126418419D01*
X167470658Y-126459544D01*
X167469098Y-126479259D01*
X167456157Y-126530592D01*
X167432994Y-126587118D01*
X167403102Y-126641035D01*
X167369973Y-126684539D01*
X167359777Y-126694887D01*
X167292692Y-126746662D01*
X167212566Y-126786554D01*
X167126356Y-126810956D01*
X167071392Y-126819068D01*
X166977939Y-126825673D01*
X166888158Y-126823586D01*
X166805669Y-126813340D01*
X166734086Y-126795470D01*
X166677028Y-126770508D01*
X166638111Y-126738988D01*
X166636736Y-126737012D01*
X166629648Y-126711786D01*
X166625409Y-126664535D01*
X166624000Y-126595071D01*
X166624860Y-126532838D01*
X166629580Y-126485456D01*
X166641270Y-126453353D01*
X166663039Y-126433800D01*
X166697998Y-126424070D01*
X166749256Y-126421433D01*
X166819923Y-126423161D01*
X166868543Y-126426173D01*
X166918739Y-126434366D01*
X166951233Y-126448419D01*
X166968692Y-126469654D01*
X166973783Y-126499394D01*
X166973677Y-126503936D01*
X166964975Y-126538730D01*
X166940965Y-126562147D01*
X166899700Y-126575347D01*
X166839231Y-126579489D01*
X166770756Y-126579489D01*
X166770756Y-126617841D01*
X166770806Y-126626976D01*
X166773027Y-126644227D01*
X166782294Y-126654521D01*
X166803675Y-126661459D01*
X166842236Y-126668641D01*
X166847710Y-126669575D01*
X166944660Y-126679478D01*
X167034652Y-126676559D01*
X167115560Y-126661829D01*
X167185259Y-126636299D01*
X167241624Y-126600978D01*
X167282529Y-126556879D01*
X167305851Y-126505012D01*
X167309463Y-126446388D01*
X167303945Y-126417494D01*
X167277261Y-126361604D01*
X167231073Y-126315945D01*
X167166091Y-126281108D01*
X167083029Y-126257690D01*
X167058355Y-126253241D01*
X166969026Y-126242742D01*
X166889219Y-126243971D01*
X166811126Y-126256906D01*
X166775983Y-126263696D01*
X166730545Y-126264713D01*
X166699230Y-126252182D01*
X166679077Y-126225395D01*
X166672693Y-126197148D01*
X166682179Y-126165924D01*
X166691508Y-126152499D01*
X166725743Y-126128967D01*
X166778365Y-126111095D01*
X166846881Y-126099599D01*
X166928800Y-126095192D01*
X167025950Y-126099179D01*
G36*
X167025950Y-126099179D02*
G01*
X167131957Y-126115494D01*
X167225769Y-126143545D01*
X167304565Y-126182452D01*
X167365519Y-126231334D01*
X167391589Y-126264195D01*
X167421097Y-126313394D01*
X167446368Y-126367252D01*
X167464018Y-126418419D01*
X167470658Y-126459544D01*
X167469098Y-126479259D01*
X167456157Y-126530592D01*
X167432994Y-126587118D01*
X167403102Y-126641035D01*
X167369973Y-126684539D01*
X167359777Y-126694887D01*
X167292692Y-126746662D01*
X167212566Y-126786554D01*
X167126356Y-126810956D01*
X167071392Y-126819068D01*
X166977939Y-126825673D01*
X166888158Y-126823586D01*
X166805669Y-126813340D01*
X166734086Y-126795470D01*
X166677028Y-126770508D01*
X166638111Y-126738988D01*
X166636736Y-126737012D01*
X166629648Y-126711786D01*
X166625409Y-126664535D01*
X166624000Y-126595071D01*
X166624860Y-126532838D01*
X166629580Y-126485456D01*
X166641270Y-126453353D01*
X166663039Y-126433800D01*
X166697998Y-126424070D01*
X166749256Y-126421433D01*
X166819923Y-126423161D01*
X166868543Y-126426173D01*
X166918739Y-126434366D01*
X166951233Y-126448419D01*
X166968692Y-126469654D01*
X166973783Y-126499394D01*
X166973677Y-126503936D01*
X166964975Y-126538730D01*
X166940965Y-126562147D01*
X166899700Y-126575347D01*
X166839231Y-126579489D01*
X166770756Y-126579489D01*
X166770756Y-126617841D01*
X166770806Y-126626976D01*
X166773027Y-126644227D01*
X166782294Y-126654521D01*
X166803675Y-126661459D01*
X166842236Y-126668641D01*
X166847710Y-126669575D01*
X166944660Y-126679478D01*
X167034652Y-126676559D01*
X167115560Y-126661829D01*
X167185259Y-126636299D01*
X167241624Y-126600978D01*
X167282529Y-126556879D01*
X167305851Y-126505012D01*
X167309463Y-126446388D01*
X167303945Y-126417494D01*
X167277261Y-126361604D01*
X167231073Y-126315945D01*
X167166091Y-126281108D01*
X167083029Y-126257690D01*
X167058355Y-126253241D01*
X166969026Y-126242742D01*
X166889219Y-126243971D01*
X166811126Y-126256906D01*
X166775983Y-126263696D01*
X166730545Y-126264713D01*
X166699230Y-126252182D01*
X166679077Y-126225395D01*
X166672693Y-126197148D01*
X166682179Y-126165924D01*
X166691508Y-126152499D01*
X166725743Y-126128967D01*
X166778365Y-126111095D01*
X166846881Y-126099599D01*
X166928800Y-126095192D01*
X167025950Y-126099179D01*
G37*
X165076603Y-126123811D02*
X165081552Y-126130495D01*
X165087396Y-126141066D01*
X165091857Y-126155153D01*
X165095121Y-126175478D01*
X165097374Y-126204765D01*
X165098802Y-126245737D01*
X165099592Y-126301117D01*
X165099929Y-126373628D01*
X165100000Y-126465994D01*
X165099971Y-126531911D01*
X165099739Y-126610228D01*
X165099119Y-126670496D01*
X165097926Y-126715393D01*
X165095979Y-126747602D01*
X165093094Y-126769800D01*
X165089088Y-126784669D01*
X165083779Y-126794889D01*
X165076983Y-126803138D01*
X165072468Y-126807795D01*
X165064238Y-126814282D01*
X165052878Y-126819194D01*
X165035610Y-126822749D01*
X165009655Y-126825167D01*
X164972236Y-126826667D01*
X164920573Y-126827467D01*
X164851889Y-126827787D01*
X164763406Y-126827845D01*
X164743731Y-126827838D01*
X164656706Y-126827572D01*
X164589054Y-126826806D01*
X164538099Y-126825392D01*
X164501167Y-126823180D01*
X164475583Y-126820022D01*
X164458671Y-126815769D01*
X164447757Y-126810271D01*
X164437264Y-126800285D01*
X164424003Y-126769168D01*
X164425186Y-126733280D01*
X164441350Y-126701733D01*
X164443539Y-126699457D01*
X164452227Y-126693189D01*
X164465569Y-126688523D01*
X164486552Y-126685227D01*
X164518163Y-126683068D01*
X164563390Y-126681814D01*
X164625220Y-126681231D01*
X164706639Y-126681089D01*
X164953245Y-126681089D01*
X164953245Y-126523045D01*
X164790806Y-126523045D01*
X164755138Y-126522964D01*
X164699368Y-126522167D01*
X164660230Y-126520162D01*
X164633776Y-126516521D01*
X164616059Y-126510812D01*
X164603129Y-126502607D01*
X164599486Y-126499423D01*
X164581078Y-126468448D01*
X164580444Y-126432112D01*
X164597983Y-126398493D01*
X164598045Y-126398424D01*
X164607716Y-126389798D01*
X164621009Y-126383742D01*
X164641717Y-126379811D01*
X164673628Y-126377556D01*
X164720534Y-126376531D01*
X164786224Y-126376289D01*
X164954371Y-126376289D01*
X164950986Y-126311378D01*
X164947600Y-126246467D01*
X164705523Y-126243414D01*
X164680507Y-126243086D01*
X164598887Y-126241606D01*
X164536568Y-126239222D01*
X164490954Y-126235227D01*
X164459452Y-126228913D01*
X164439467Y-126219574D01*
X164428404Y-126206503D01*
X164423669Y-126188992D01*
X164422667Y-126166335D01*
X164422673Y-126163970D01*
X164423827Y-126143939D01*
X164428624Y-126128146D01*
X164439432Y-126116090D01*
X164458617Y-126107267D01*
X164488545Y-126101175D01*
X164531583Y-126097311D01*
X164590099Y-126095174D01*
X164666457Y-126094260D01*
X164763026Y-126094067D01*
X165053206Y-126094067D01*
X165076603Y-126123811D01*
G36*
X165076603Y-126123811D02*
G01*
X165081552Y-126130495D01*
X165087396Y-126141066D01*
X165091857Y-126155153D01*
X165095121Y-126175478D01*
X165097374Y-126204765D01*
X165098802Y-126245737D01*
X165099592Y-126301117D01*
X165099929Y-126373628D01*
X165100000Y-126465994D01*
X165099971Y-126531911D01*
X165099739Y-126610228D01*
X165099119Y-126670496D01*
X165097926Y-126715393D01*
X165095979Y-126747602D01*
X165093094Y-126769800D01*
X165089088Y-126784669D01*
X165083779Y-126794889D01*
X165076983Y-126803138D01*
X165072468Y-126807795D01*
X165064238Y-126814282D01*
X165052878Y-126819194D01*
X165035610Y-126822749D01*
X165009655Y-126825167D01*
X164972236Y-126826667D01*
X164920573Y-126827467D01*
X164851889Y-126827787D01*
X164763406Y-126827845D01*
X164743731Y-126827838D01*
X164656706Y-126827572D01*
X164589054Y-126826806D01*
X164538099Y-126825392D01*
X164501167Y-126823180D01*
X164475583Y-126820022D01*
X164458671Y-126815769D01*
X164447757Y-126810271D01*
X164437264Y-126800285D01*
X164424003Y-126769168D01*
X164425186Y-126733280D01*
X164441350Y-126701733D01*
X164443539Y-126699457D01*
X164452227Y-126693189D01*
X164465569Y-126688523D01*
X164486552Y-126685227D01*
X164518163Y-126683068D01*
X164563390Y-126681814D01*
X164625220Y-126681231D01*
X164706639Y-126681089D01*
X164953245Y-126681089D01*
X164953245Y-126523045D01*
X164790806Y-126523045D01*
X164755138Y-126522964D01*
X164699368Y-126522167D01*
X164660230Y-126520162D01*
X164633776Y-126516521D01*
X164616059Y-126510812D01*
X164603129Y-126502607D01*
X164599486Y-126499423D01*
X164581078Y-126468448D01*
X164580444Y-126432112D01*
X164597983Y-126398493D01*
X164598045Y-126398424D01*
X164607716Y-126389798D01*
X164621009Y-126383742D01*
X164641717Y-126379811D01*
X164673628Y-126377556D01*
X164720534Y-126376531D01*
X164786224Y-126376289D01*
X164954371Y-126376289D01*
X164950986Y-126311378D01*
X164947600Y-126246467D01*
X164705523Y-126243414D01*
X164680507Y-126243086D01*
X164598887Y-126241606D01*
X164536568Y-126239222D01*
X164490954Y-126235227D01*
X164459452Y-126228913D01*
X164439467Y-126219574D01*
X164428404Y-126206503D01*
X164423669Y-126188992D01*
X164422667Y-126166335D01*
X164422673Y-126163970D01*
X164423827Y-126143939D01*
X164428624Y-126128146D01*
X164439432Y-126116090D01*
X164458617Y-126107267D01*
X164488545Y-126101175D01*
X164531583Y-126097311D01*
X164590099Y-126095174D01*
X164666457Y-126094260D01*
X164763026Y-126094067D01*
X165053206Y-126094067D01*
X165076603Y-126123811D01*
G37*
X169753534Y-126094083D02*
X169830631Y-126094275D01*
X169889577Y-126094860D01*
X169933164Y-126096051D01*
X169964183Y-126098064D01*
X169985425Y-126101112D01*
X169999682Y-126105409D01*
X170009745Y-126111172D01*
X170018406Y-126118612D01*
X170020191Y-126120293D01*
X170027435Y-126127832D01*
X170033077Y-126136850D01*
X170037317Y-126149984D01*
X170040356Y-126169872D01*
X170042394Y-126199151D01*
X170043630Y-126240458D01*
X170044265Y-126296431D01*
X170044500Y-126369707D01*
X170044534Y-126462923D01*
X170044497Y-126535713D01*
X170044248Y-126613889D01*
X170043612Y-126674103D01*
X170042415Y-126718982D01*
X170040484Y-126751152D01*
X170037646Y-126773239D01*
X170033727Y-126787870D01*
X170028555Y-126797670D01*
X170021956Y-126805267D01*
X170018622Y-126808444D01*
X170010100Y-126814554D01*
X169998098Y-126819229D01*
X169979887Y-126822659D01*
X169952740Y-126825036D01*
X169913929Y-126826552D01*
X169860724Y-126827398D01*
X169790398Y-126827765D01*
X169700222Y-126827845D01*
X169658114Y-126827833D01*
X169576967Y-126827651D01*
X169514475Y-126827098D01*
X169467909Y-126825982D01*
X169434541Y-126824113D01*
X169411644Y-126821298D01*
X169396488Y-126817346D01*
X169386346Y-126812066D01*
X169378489Y-126805267D01*
X169363763Y-126783667D01*
X169355911Y-126754467D01*
X169361410Y-126730560D01*
X169378489Y-126703667D01*
X169383468Y-126699059D01*
X169393243Y-126692772D01*
X169407359Y-126688146D01*
X169428854Y-126684930D01*
X169460768Y-126682870D01*
X169506142Y-126681712D01*
X169568013Y-126681202D01*
X169649422Y-126681089D01*
X169897778Y-126681089D01*
X169897778Y-126523045D01*
X169736601Y-126523045D01*
X169700783Y-126522899D01*
X169635159Y-126521176D01*
X169587918Y-126516741D01*
X169556183Y-126508637D01*
X169537077Y-126495906D01*
X169527723Y-126477592D01*
X169525245Y-126452738D01*
X169526042Y-126432482D01*
X169531294Y-126410656D01*
X169544088Y-126395304D01*
X169567428Y-126385309D01*
X169604317Y-126379553D01*
X169657759Y-126376919D01*
X169730758Y-126376289D01*
X169898905Y-126376289D01*
X169895519Y-126311378D01*
X169892134Y-126246467D01*
X169644417Y-126243418D01*
X169581826Y-126242539D01*
X169513365Y-126241095D01*
X169462461Y-126239164D01*
X169426208Y-126236514D01*
X169401701Y-126232910D01*
X169386035Y-126228121D01*
X169376306Y-126221913D01*
X169370291Y-126215510D01*
X169357282Y-126183828D01*
X169360843Y-126148142D01*
X169380618Y-126117084D01*
X169383869Y-126114161D01*
X169392849Y-126107810D01*
X169404953Y-126102957D01*
X169422959Y-126099403D01*
X169449647Y-126096946D01*
X169487797Y-126095385D01*
X169540186Y-126094518D01*
X169609594Y-126094146D01*
X169698801Y-126094067D01*
X169753534Y-126094083D01*
G36*
X169753534Y-126094083D02*
G01*
X169830631Y-126094275D01*
X169889577Y-126094860D01*
X169933164Y-126096051D01*
X169964183Y-126098064D01*
X169985425Y-126101112D01*
X169999682Y-126105409D01*
X170009745Y-126111172D01*
X170018406Y-126118612D01*
X170020191Y-126120293D01*
X170027435Y-126127832D01*
X170033077Y-126136850D01*
X170037317Y-126149984D01*
X170040356Y-126169872D01*
X170042394Y-126199151D01*
X170043630Y-126240458D01*
X170044265Y-126296431D01*
X170044500Y-126369707D01*
X170044534Y-126462923D01*
X170044497Y-126535713D01*
X170044248Y-126613889D01*
X170043612Y-126674103D01*
X170042415Y-126718982D01*
X170040484Y-126751152D01*
X170037646Y-126773239D01*
X170033727Y-126787870D01*
X170028555Y-126797670D01*
X170021956Y-126805267D01*
X170018622Y-126808444D01*
X170010100Y-126814554D01*
X169998098Y-126819229D01*
X169979887Y-126822659D01*
X169952740Y-126825036D01*
X169913929Y-126826552D01*
X169860724Y-126827398D01*
X169790398Y-126827765D01*
X169700222Y-126827845D01*
X169658114Y-126827833D01*
X169576967Y-126827651D01*
X169514475Y-126827098D01*
X169467909Y-126825982D01*
X169434541Y-126824113D01*
X169411644Y-126821298D01*
X169396488Y-126817346D01*
X169386346Y-126812066D01*
X169378489Y-126805267D01*
X169363763Y-126783667D01*
X169355911Y-126754467D01*
X169361410Y-126730560D01*
X169378489Y-126703667D01*
X169383468Y-126699059D01*
X169393243Y-126692772D01*
X169407359Y-126688146D01*
X169428854Y-126684930D01*
X169460768Y-126682870D01*
X169506142Y-126681712D01*
X169568013Y-126681202D01*
X169649422Y-126681089D01*
X169897778Y-126681089D01*
X169897778Y-126523045D01*
X169736601Y-126523045D01*
X169700783Y-126522899D01*
X169635159Y-126521176D01*
X169587918Y-126516741D01*
X169556183Y-126508637D01*
X169537077Y-126495906D01*
X169527723Y-126477592D01*
X169525245Y-126452738D01*
X169526042Y-126432482D01*
X169531294Y-126410656D01*
X169544088Y-126395304D01*
X169567428Y-126385309D01*
X169604317Y-126379553D01*
X169657759Y-126376919D01*
X169730758Y-126376289D01*
X169898905Y-126376289D01*
X169895519Y-126311378D01*
X169892134Y-126246467D01*
X169644417Y-126243418D01*
X169581826Y-126242539D01*
X169513365Y-126241095D01*
X169462461Y-126239164D01*
X169426208Y-126236514D01*
X169401701Y-126232910D01*
X169386035Y-126228121D01*
X169376306Y-126221913D01*
X169370291Y-126215510D01*
X169357282Y-126183828D01*
X169360843Y-126148142D01*
X169380618Y-126117084D01*
X169383869Y-126114161D01*
X169392849Y-126107810D01*
X169404953Y-126102957D01*
X169422959Y-126099403D01*
X169449647Y-126096946D01*
X169487797Y-126095385D01*
X169540186Y-126094518D01*
X169609594Y-126094146D01*
X169698801Y-126094067D01*
X169753534Y-126094083D01*
G37*
X161186502Y-126103478D02*
X161204463Y-126121989D01*
X161225063Y-126153071D01*
X161249895Y-126198756D01*
X161280550Y-126261078D01*
X161318620Y-126342071D01*
X161333254Y-126373454D01*
X161363003Y-126436638D01*
X161389097Y-126491244D01*
X161410092Y-126534290D01*
X161424539Y-126562793D01*
X161430991Y-126573770D01*
X161432350Y-126573189D01*
X161442342Y-126559242D01*
X161459633Y-126529704D01*
X161482230Y-126488087D01*
X161508138Y-126437903D01*
X161524111Y-126406414D01*
X161553061Y-126351061D01*
X161575549Y-126312044D01*
X161593765Y-126286566D01*
X161609896Y-126271831D01*
X161626130Y-126265042D01*
X161644657Y-126263400D01*
X161655160Y-126263875D01*
X161671276Y-126268082D01*
X161686590Y-126278946D01*
X161703188Y-126299219D01*
X161723157Y-126331654D01*
X161748583Y-126379004D01*
X161781552Y-126444022D01*
X161791285Y-126463277D01*
X161815743Y-126509946D01*
X161835978Y-126546109D01*
X161850111Y-126568497D01*
X161856260Y-126573845D01*
X161857627Y-126570573D01*
X161867002Y-126549664D01*
X161883862Y-126512725D01*
X161906779Y-126462874D01*
X161934320Y-126403226D01*
X161965055Y-126336898D01*
X161991770Y-126279677D01*
X162021393Y-126217688D01*
X162044464Y-126171949D01*
X162062443Y-126139908D01*
X162076790Y-126119014D01*
X162088966Y-126106718D01*
X162100432Y-126100466D01*
X162109842Y-126097574D01*
X162134947Y-126097425D01*
X162162090Y-126112768D01*
X162163390Y-126113753D01*
X162185474Y-126136388D01*
X162196523Y-126158613D01*
X162196569Y-126159253D01*
X162192028Y-126176915D01*
X162179164Y-126211481D01*
X162159405Y-126259826D01*
X162134181Y-126318825D01*
X162104919Y-126385355D01*
X162073050Y-126456291D01*
X162040001Y-126528507D01*
X162007201Y-126598880D01*
X161976080Y-126664285D01*
X161948065Y-126721597D01*
X161924586Y-126767692D01*
X161907072Y-126799446D01*
X161896951Y-126813733D01*
X161862543Y-126827102D01*
X161820846Y-126820741D01*
X161815481Y-126816044D01*
X161799652Y-126793893D01*
X161777450Y-126757132D01*
X161751033Y-126709415D01*
X161722560Y-126654393D01*
X161642786Y-126495150D01*
X161569599Y-126641742D01*
X161559903Y-126661032D01*
X161532925Y-126713380D01*
X161508896Y-126758170D01*
X161490132Y-126791154D01*
X161478946Y-126808089D01*
X161477800Y-126809332D01*
X161449679Y-126824619D01*
X161414617Y-126826302D01*
X161383576Y-126813733D01*
X161381150Y-126810884D01*
X161368890Y-126790259D01*
X161349152Y-126752708D01*
X161323248Y-126700880D01*
X161292485Y-126637423D01*
X161258175Y-126564985D01*
X161221625Y-126486216D01*
X161201385Y-126442093D01*
X161164612Y-126361365D01*
X161136155Y-126297687D01*
X161115131Y-126248752D01*
X161100654Y-126212257D01*
X161091839Y-126185895D01*
X161087804Y-126167361D01*
X161087662Y-126154352D01*
X161090530Y-126144561D01*
X161105187Y-126123678D01*
X161131790Y-126103377D01*
X161132545Y-126103035D01*
X161152135Y-126096034D01*
X161169590Y-126095504D01*
X161186502Y-126103478D01*
G36*
X161186502Y-126103478D02*
G01*
X161204463Y-126121989D01*
X161225063Y-126153071D01*
X161249895Y-126198756D01*
X161280550Y-126261078D01*
X161318620Y-126342071D01*
X161333254Y-126373454D01*
X161363003Y-126436638D01*
X161389097Y-126491244D01*
X161410092Y-126534290D01*
X161424539Y-126562793D01*
X161430991Y-126573770D01*
X161432350Y-126573189D01*
X161442342Y-126559242D01*
X161459633Y-126529704D01*
X161482230Y-126488087D01*
X161508138Y-126437903D01*
X161524111Y-126406414D01*
X161553061Y-126351061D01*
X161575549Y-126312044D01*
X161593765Y-126286566D01*
X161609896Y-126271831D01*
X161626130Y-126265042D01*
X161644657Y-126263400D01*
X161655160Y-126263875D01*
X161671276Y-126268082D01*
X161686590Y-126278946D01*
X161703188Y-126299219D01*
X161723157Y-126331654D01*
X161748583Y-126379004D01*
X161781552Y-126444022D01*
X161791285Y-126463277D01*
X161815743Y-126509946D01*
X161835978Y-126546109D01*
X161850111Y-126568497D01*
X161856260Y-126573845D01*
X161857627Y-126570573D01*
X161867002Y-126549664D01*
X161883862Y-126512725D01*
X161906779Y-126462874D01*
X161934320Y-126403226D01*
X161965055Y-126336898D01*
X161991770Y-126279677D01*
X162021393Y-126217688D01*
X162044464Y-126171949D01*
X162062443Y-126139908D01*
X162076790Y-126119014D01*
X162088966Y-126106718D01*
X162100432Y-126100466D01*
X162109842Y-126097574D01*
X162134947Y-126097425D01*
X162162090Y-126112768D01*
X162163390Y-126113753D01*
X162185474Y-126136388D01*
X162196523Y-126158613D01*
X162196569Y-126159253D01*
X162192028Y-126176915D01*
X162179164Y-126211481D01*
X162159405Y-126259826D01*
X162134181Y-126318825D01*
X162104919Y-126385355D01*
X162073050Y-126456291D01*
X162040001Y-126528507D01*
X162007201Y-126598880D01*
X161976080Y-126664285D01*
X161948065Y-126721597D01*
X161924586Y-126767692D01*
X161907072Y-126799446D01*
X161896951Y-126813733D01*
X161862543Y-126827102D01*
X161820846Y-126820741D01*
X161815481Y-126816044D01*
X161799652Y-126793893D01*
X161777450Y-126757132D01*
X161751033Y-126709415D01*
X161722560Y-126654393D01*
X161642786Y-126495150D01*
X161569599Y-126641742D01*
X161559903Y-126661032D01*
X161532925Y-126713380D01*
X161508896Y-126758170D01*
X161490132Y-126791154D01*
X161478946Y-126808089D01*
X161477800Y-126809332D01*
X161449679Y-126824619D01*
X161414617Y-126826302D01*
X161383576Y-126813733D01*
X161381150Y-126810884D01*
X161368890Y-126790259D01*
X161349152Y-126752708D01*
X161323248Y-126700880D01*
X161292485Y-126637423D01*
X161258175Y-126564985D01*
X161221625Y-126486216D01*
X161201385Y-126442093D01*
X161164612Y-126361365D01*
X161136155Y-126297687D01*
X161115131Y-126248752D01*
X161100654Y-126212257D01*
X161091839Y-126185895D01*
X161087804Y-126167361D01*
X161087662Y-126154352D01*
X161090530Y-126144561D01*
X161105187Y-126123678D01*
X161131790Y-126103377D01*
X161132545Y-126103035D01*
X161152135Y-126096034D01*
X161169590Y-126095504D01*
X161186502Y-126103478D01*
G37*
X168737653Y-126094936D02*
X168803900Y-126100366D01*
X168859200Y-126109964D01*
X168910083Y-126124825D01*
X168981395Y-126157958D01*
X169032552Y-126200640D01*
X169063375Y-126252705D01*
X169073689Y-126313983D01*
X169072752Y-126345232D01*
X169066960Y-126370029D01*
X169052153Y-126391699D01*
X169024180Y-126419049D01*
X169016202Y-126426378D01*
X168992492Y-126447281D01*
X168970098Y-126464251D01*
X168946065Y-126478205D01*
X168917437Y-126490056D01*
X168881260Y-126500720D01*
X168834580Y-126511111D01*
X168774441Y-126522146D01*
X168697890Y-126534738D01*
X168601971Y-126549804D01*
X168583608Y-126552838D01*
X168521278Y-126566458D01*
X168476060Y-126582192D01*
X168449776Y-126599263D01*
X168444247Y-126616897D01*
X168446868Y-126621168D01*
X168464800Y-126636233D01*
X168492926Y-126652867D01*
X168505726Y-126658857D01*
X168527024Y-126666050D01*
X168553410Y-126670827D01*
X168589254Y-126673646D01*
X168638928Y-126674964D01*
X168706800Y-126675237D01*
X168724585Y-126675164D01*
X168792206Y-126674053D01*
X168857145Y-126671828D01*
X168912770Y-126668762D01*
X168952451Y-126665127D01*
X168987962Y-126661059D01*
X169017215Y-126660276D01*
X169036115Y-126664876D01*
X169051229Y-126675551D01*
X169054885Y-126679144D01*
X169071227Y-126710918D01*
X169069907Y-126746572D01*
X169050950Y-126777190D01*
X169030580Y-126788796D01*
X168994596Y-126801491D01*
X168952172Y-126811541D01*
X168948722Y-126812140D01*
X168906052Y-126817356D01*
X168848666Y-126821730D01*
X168783649Y-126824818D01*
X168718089Y-126826177D01*
X168701857Y-126826218D01*
X168603544Y-126823741D01*
X168523492Y-126815735D01*
X168458313Y-126801203D01*
X168404617Y-126779149D01*
X168359016Y-126748576D01*
X168318123Y-126708486D01*
X168298002Y-126682259D01*
X168286376Y-126652712D01*
X168283467Y-126612995D01*
X168283608Y-126601026D01*
X168287481Y-126568345D01*
X168299865Y-126541819D01*
X168325030Y-126510971D01*
X168346242Y-126488831D01*
X168372638Y-126466285D01*
X168402355Y-126447917D01*
X168438585Y-126432661D01*
X168484517Y-126419449D01*
X168543344Y-126407214D01*
X168618256Y-126394889D01*
X168712445Y-126381406D01*
X168757757Y-126374396D01*
X168825711Y-126359837D01*
X168874847Y-126343337D01*
X168904414Y-126325439D01*
X168913664Y-126306685D01*
X168901848Y-126287615D01*
X168868216Y-126268771D01*
X168865170Y-126267557D01*
X168818811Y-126255479D01*
X168756161Y-126247279D01*
X168682727Y-126243119D01*
X168604017Y-126243161D01*
X168525539Y-126247569D01*
X168452800Y-126256505D01*
X168448873Y-126257154D01*
X168400057Y-126264861D01*
X168367805Y-126268473D01*
X168346808Y-126267876D01*
X168331754Y-126262954D01*
X168317334Y-126253596D01*
X168316164Y-126252725D01*
X168291647Y-126222351D01*
X168286854Y-126186850D01*
X168302660Y-126152269D01*
X168307206Y-126147813D01*
X168336820Y-126132673D01*
X168383802Y-126119550D01*
X168444106Y-126108750D01*
X168513688Y-126100581D01*
X168588503Y-126095351D01*
X168664506Y-126093367D01*
X168737653Y-126094936D01*
G36*
X168737653Y-126094936D02*
G01*
X168803900Y-126100366D01*
X168859200Y-126109964D01*
X168910083Y-126124825D01*
X168981395Y-126157958D01*
X169032552Y-126200640D01*
X169063375Y-126252705D01*
X169073689Y-126313983D01*
X169072752Y-126345232D01*
X169066960Y-126370029D01*
X169052153Y-126391699D01*
X169024180Y-126419049D01*
X169016202Y-126426378D01*
X168992492Y-126447281D01*
X168970098Y-126464251D01*
X168946065Y-126478205D01*
X168917437Y-126490056D01*
X168881260Y-126500720D01*
X168834580Y-126511111D01*
X168774441Y-126522146D01*
X168697890Y-126534738D01*
X168601971Y-126549804D01*
X168583608Y-126552838D01*
X168521278Y-126566458D01*
X168476060Y-126582192D01*
X168449776Y-126599263D01*
X168444247Y-126616897D01*
X168446868Y-126621168D01*
X168464800Y-126636233D01*
X168492926Y-126652867D01*
X168505726Y-126658857D01*
X168527024Y-126666050D01*
X168553410Y-126670827D01*
X168589254Y-126673646D01*
X168638928Y-126674964D01*
X168706800Y-126675237D01*
X168724585Y-126675164D01*
X168792206Y-126674053D01*
X168857145Y-126671828D01*
X168912770Y-126668762D01*
X168952451Y-126665127D01*
X168987962Y-126661059D01*
X169017215Y-126660276D01*
X169036115Y-126664876D01*
X169051229Y-126675551D01*
X169054885Y-126679144D01*
X169071227Y-126710918D01*
X169069907Y-126746572D01*
X169050950Y-126777190D01*
X169030580Y-126788796D01*
X168994596Y-126801491D01*
X168952172Y-126811541D01*
X168948722Y-126812140D01*
X168906052Y-126817356D01*
X168848666Y-126821730D01*
X168783649Y-126824818D01*
X168718089Y-126826177D01*
X168701857Y-126826218D01*
X168603544Y-126823741D01*
X168523492Y-126815735D01*
X168458313Y-126801203D01*
X168404617Y-126779149D01*
X168359016Y-126748576D01*
X168318123Y-126708486D01*
X168298002Y-126682259D01*
X168286376Y-126652712D01*
X168283467Y-126612995D01*
X168283608Y-126601026D01*
X168287481Y-126568345D01*
X168299865Y-126541819D01*
X168325030Y-126510971D01*
X168346242Y-126488831D01*
X168372638Y-126466285D01*
X168402355Y-126447917D01*
X168438585Y-126432661D01*
X168484517Y-126419449D01*
X168543344Y-126407214D01*
X168618256Y-126394889D01*
X168712445Y-126381406D01*
X168757757Y-126374396D01*
X168825711Y-126359837D01*
X168874847Y-126343337D01*
X168904414Y-126325439D01*
X168913664Y-126306685D01*
X168901848Y-126287615D01*
X168868216Y-126268771D01*
X168865170Y-126267557D01*
X168818811Y-126255479D01*
X168756161Y-126247279D01*
X168682727Y-126243119D01*
X168604017Y-126243161D01*
X168525539Y-126247569D01*
X168452800Y-126256505D01*
X168448873Y-126257154D01*
X168400057Y-126264861D01*
X168367805Y-126268473D01*
X168346808Y-126267876D01*
X168331754Y-126262954D01*
X168317334Y-126253596D01*
X168316164Y-126252725D01*
X168291647Y-126222351D01*
X168286854Y-126186850D01*
X168302660Y-126152269D01*
X168307206Y-126147813D01*
X168336820Y-126132673D01*
X168383802Y-126119550D01*
X168444106Y-126108750D01*
X168513688Y-126100581D01*
X168588503Y-126095351D01*
X168664506Y-126093367D01*
X168737653Y-126094936D01*
G37*
X164885511Y-121787033D02*
X164981068Y-121804523D01*
X165145358Y-121849564D01*
X165299389Y-121912656D01*
X165445309Y-121994915D01*
X165585266Y-122097457D01*
X165721408Y-122221399D01*
X165765273Y-122266661D01*
X165877558Y-122398865D01*
X165970772Y-122536832D01*
X166047519Y-122684750D01*
X166110403Y-122846803D01*
X166114220Y-122858391D01*
X166164307Y-123044392D01*
X166197699Y-123240521D01*
X166214384Y-123442568D01*
X166214351Y-123646325D01*
X166197591Y-123847581D01*
X166164092Y-124042128D01*
X166113844Y-124225756D01*
X166069990Y-124343053D01*
X165992148Y-124505951D01*
X165898628Y-124659866D01*
X165791622Y-124801671D01*
X165673319Y-124928239D01*
X165545911Y-125036441D01*
X165468406Y-125089120D01*
X165341525Y-125158750D01*
X165204043Y-125217468D01*
X165062516Y-125262587D01*
X164923502Y-125291422D01*
X164909397Y-125293106D01*
X164865953Y-125296434D01*
X164808523Y-125299275D01*
X164742922Y-125301373D01*
X164674967Y-125302468D01*
X164548178Y-125300140D01*
X164400473Y-125287136D01*
X164262579Y-125262133D01*
X164128814Y-125224318D01*
X164105362Y-125215889D01*
X164057412Y-125196408D01*
X164000940Y-125171473D01*
X163939179Y-125142722D01*
X163875363Y-125111790D01*
X163812726Y-125080315D01*
X163754503Y-125049934D01*
X163703927Y-125022283D01*
X163664233Y-124998999D01*
X163638654Y-124981718D01*
X163630425Y-124972079D01*
X163631876Y-124968984D01*
X163643050Y-124949079D01*
X163663934Y-124913420D01*
X163693065Y-124864459D01*
X163728981Y-124804646D01*
X163770220Y-124736433D01*
X163815317Y-124662271D01*
X163996585Y-124365008D01*
X164043115Y-124409539D01*
X164134523Y-124487865D01*
X164248134Y-124562439D01*
X164365922Y-124616474D01*
X164486359Y-124649290D01*
X164607917Y-124660211D01*
X164649385Y-124658868D01*
X164766880Y-124640612D01*
X164876889Y-124601617D01*
X164978230Y-124542670D01*
X165069721Y-124464557D01*
X165150180Y-124368064D01*
X165218427Y-124253978D01*
X165234708Y-124219724D01*
X165280782Y-124096240D01*
X165315906Y-123957918D01*
X165339997Y-123808561D01*
X165352973Y-123651973D01*
X165354749Y-123491956D01*
X165345243Y-123332314D01*
X165324372Y-123176850D01*
X165292052Y-123029366D01*
X165248199Y-122893667D01*
X165210782Y-122807076D01*
X165145985Y-122693688D01*
X165070572Y-122600070D01*
X164984218Y-122525959D01*
X164886595Y-122471094D01*
X164777377Y-122435212D01*
X164656239Y-122418051D01*
X164586838Y-122416880D01*
X164463968Y-122431141D01*
X164348464Y-122466241D01*
X164241753Y-122521682D01*
X164145264Y-122596964D01*
X164129520Y-122611440D01*
X164098950Y-122637962D01*
X164076609Y-122655138D01*
X164066491Y-122659787D01*
X164064506Y-122657597D01*
X164050041Y-122638721D01*
X164026200Y-122605397D01*
X163994829Y-122560380D01*
X163957774Y-122506425D01*
X163916883Y-122446285D01*
X163874002Y-122382718D01*
X163830978Y-122318476D01*
X163789657Y-122256315D01*
X163751886Y-122198991D01*
X163719512Y-122149257D01*
X163694382Y-122109868D01*
X163678342Y-122083580D01*
X163673239Y-122073147D01*
X163677850Y-122068941D01*
X163697067Y-122063933D01*
X163706638Y-122061386D01*
X163734609Y-122050249D01*
X163776248Y-122031802D01*
X163827795Y-122007725D01*
X163885490Y-121979699D01*
X163896757Y-121974154D01*
X164074487Y-121894889D01*
X164244290Y-121835385D01*
X164408230Y-121795245D01*
X164568371Y-121774071D01*
X164726777Y-121771466D01*
X164885511Y-121787033D01*
G36*
X164885511Y-121787033D02*
G01*
X164981068Y-121804523D01*
X165145358Y-121849564D01*
X165299389Y-121912656D01*
X165445309Y-121994915D01*
X165585266Y-122097457D01*
X165721408Y-122221399D01*
X165765273Y-122266661D01*
X165877558Y-122398865D01*
X165970772Y-122536832D01*
X166047519Y-122684750D01*
X166110403Y-122846803D01*
X166114220Y-122858391D01*
X166164307Y-123044392D01*
X166197699Y-123240521D01*
X166214384Y-123442568D01*
X166214351Y-123646325D01*
X166197591Y-123847581D01*
X166164092Y-124042128D01*
X166113844Y-124225756D01*
X166069990Y-124343053D01*
X165992148Y-124505951D01*
X165898628Y-124659866D01*
X165791622Y-124801671D01*
X165673319Y-124928239D01*
X165545911Y-125036441D01*
X165468406Y-125089120D01*
X165341525Y-125158750D01*
X165204043Y-125217468D01*
X165062516Y-125262587D01*
X164923502Y-125291422D01*
X164909397Y-125293106D01*
X164865953Y-125296434D01*
X164808523Y-125299275D01*
X164742922Y-125301373D01*
X164674967Y-125302468D01*
X164548178Y-125300140D01*
X164400473Y-125287136D01*
X164262579Y-125262133D01*
X164128814Y-125224318D01*
X164105362Y-125215889D01*
X164057412Y-125196408D01*
X164000940Y-125171473D01*
X163939179Y-125142722D01*
X163875363Y-125111790D01*
X163812726Y-125080315D01*
X163754503Y-125049934D01*
X163703927Y-125022283D01*
X163664233Y-124998999D01*
X163638654Y-124981718D01*
X163630425Y-124972079D01*
X163631876Y-124968984D01*
X163643050Y-124949079D01*
X163663934Y-124913420D01*
X163693065Y-124864459D01*
X163728981Y-124804646D01*
X163770220Y-124736433D01*
X163815317Y-124662271D01*
X163996585Y-124365008D01*
X164043115Y-124409539D01*
X164134523Y-124487865D01*
X164248134Y-124562439D01*
X164365922Y-124616474D01*
X164486359Y-124649290D01*
X164607917Y-124660211D01*
X164649385Y-124658868D01*
X164766880Y-124640612D01*
X164876889Y-124601617D01*
X164978230Y-124542670D01*
X165069721Y-124464557D01*
X165150180Y-124368064D01*
X165218427Y-124253978D01*
X165234708Y-124219724D01*
X165280782Y-124096240D01*
X165315906Y-123957918D01*
X165339997Y-123808561D01*
X165352973Y-123651973D01*
X165354749Y-123491956D01*
X165345243Y-123332314D01*
X165324372Y-123176850D01*
X165292052Y-123029366D01*
X165248199Y-122893667D01*
X165210782Y-122807076D01*
X165145985Y-122693688D01*
X165070572Y-122600070D01*
X164984218Y-122525959D01*
X164886595Y-122471094D01*
X164777377Y-122435212D01*
X164656239Y-122418051D01*
X164586838Y-122416880D01*
X164463968Y-122431141D01*
X164348464Y-122466241D01*
X164241753Y-122521682D01*
X164145264Y-122596964D01*
X164129520Y-122611440D01*
X164098950Y-122637962D01*
X164076609Y-122655138D01*
X164066491Y-122659787D01*
X164064506Y-122657597D01*
X164050041Y-122638721D01*
X164026200Y-122605397D01*
X163994829Y-122560380D01*
X163957774Y-122506425D01*
X163916883Y-122446285D01*
X163874002Y-122382718D01*
X163830978Y-122318476D01*
X163789657Y-122256315D01*
X163751886Y-122198991D01*
X163719512Y-122149257D01*
X163694382Y-122109868D01*
X163678342Y-122083580D01*
X163673239Y-122073147D01*
X163677850Y-122068941D01*
X163697067Y-122063933D01*
X163706638Y-122061386D01*
X163734609Y-122050249D01*
X163776248Y-122031802D01*
X163827795Y-122007725D01*
X163885490Y-121979699D01*
X163896757Y-121974154D01*
X164074487Y-121894889D01*
X164244290Y-121835385D01*
X164408230Y-121795245D01*
X164568371Y-121774071D01*
X164726777Y-121771466D01*
X164885511Y-121787033D01*
G37*
X161082794Y-124067711D02*
X161082068Y-124145158D01*
X161073489Y-124296594D01*
X161054633Y-124433283D01*
X161024637Y-124559276D01*
X160982636Y-124678625D01*
X160927769Y-124795381D01*
X160860967Y-124906179D01*
X160770163Y-125019739D01*
X160666508Y-125115211D01*
X160550687Y-125192073D01*
X160423386Y-125249797D01*
X160285289Y-125287858D01*
X160247593Y-125293666D01*
X160168552Y-125299396D01*
X160080429Y-125299583D01*
X159991036Y-125294539D01*
X159908184Y-125284578D01*
X159839687Y-125270012D01*
X159808835Y-125260364D01*
X159731530Y-125230123D01*
X159654479Y-125192617D01*
X159585000Y-125151614D01*
X159530415Y-125110879D01*
X159507716Y-125091505D01*
X159485001Y-125073662D01*
X159473579Y-125066778D01*
X159472337Y-125068424D01*
X159469528Y-125086205D01*
X159467576Y-125119370D01*
X159466845Y-125162733D01*
X159466845Y-125258689D01*
X158608696Y-125258689D01*
X158642961Y-125197974D01*
X158648155Y-125188868D01*
X158656515Y-125174249D01*
X158664088Y-125160173D01*
X158670912Y-125145540D01*
X158677027Y-125129249D01*
X158682473Y-125110198D01*
X158687287Y-125087286D01*
X158691508Y-125059413D01*
X158695177Y-125025478D01*
X158698331Y-124984379D01*
X158701011Y-124935015D01*
X158703254Y-124876286D01*
X158705099Y-124807090D01*
X158706587Y-124726326D01*
X158707755Y-124632894D01*
X158708644Y-124525692D01*
X158709291Y-124403620D01*
X158709736Y-124265576D01*
X158710018Y-124110459D01*
X158710175Y-123937168D01*
X158710248Y-123744603D01*
X158710274Y-123531662D01*
X158710285Y-123395530D01*
X159512000Y-123395530D01*
X159512000Y-124545721D01*
X159582556Y-124592089D01*
X159623217Y-124615791D01*
X159677346Y-124641639D01*
X159726489Y-124659829D01*
X159789965Y-124675551D01*
X159886131Y-124686541D01*
X159970700Y-124678365D01*
X160044019Y-124650805D01*
X160106437Y-124603642D01*
X160158302Y-124536658D01*
X160199960Y-124449633D01*
X160231762Y-124342350D01*
X160234345Y-124330009D01*
X160242800Y-124268772D01*
X160248463Y-124191692D01*
X160251376Y-124104002D01*
X160251583Y-124010934D01*
X160249130Y-123917720D01*
X160244061Y-123829594D01*
X160236419Y-123751788D01*
X160226248Y-123689533D01*
X160224967Y-123683666D01*
X160195926Y-123573121D01*
X160161410Y-123482575D01*
X160120256Y-123409953D01*
X160071299Y-123353181D01*
X160013374Y-123310184D01*
X159981420Y-123294615D01*
X159908584Y-123275722D01*
X159827243Y-123272465D01*
X159742119Y-123284389D01*
X159657933Y-123311040D01*
X159579408Y-123351962D01*
X159512000Y-123395530D01*
X158710285Y-123395530D01*
X158710293Y-123297245D01*
X158710489Y-121612378D01*
X159615817Y-121612378D01*
X159591385Y-121649067D01*
X159585118Y-121658647D01*
X159559008Y-121704981D01*
X159541269Y-121752102D01*
X159529708Y-121807251D01*
X159522131Y-121877667D01*
X159521639Y-121884650D01*
X159519862Y-121922641D01*
X159518244Y-121976576D01*
X159516799Y-122043703D01*
X159515540Y-122121271D01*
X159514480Y-122206528D01*
X159513629Y-122296724D01*
X159513003Y-122389107D01*
X159512612Y-122480925D01*
X159512470Y-122569427D01*
X159512590Y-122651862D01*
X159512983Y-122725479D01*
X159513662Y-122787526D01*
X159514641Y-122835251D01*
X159515932Y-122865904D01*
X159517547Y-122876733D01*
X159525757Y-122872333D01*
X159547447Y-122857362D01*
X159576814Y-122835448D01*
X159625679Y-122801236D01*
X159713925Y-122754714D01*
X159812716Y-122721046D01*
X159925310Y-122699231D01*
X160054964Y-122688265D01*
X160147470Y-122687219D01*
X160268811Y-122697014D01*
X160378899Y-122721174D01*
X160482189Y-122760785D01*
X160583138Y-122816932D01*
X160628303Y-122847883D01*
X160733711Y-122939115D01*
X160825338Y-123048106D01*
X160903132Y-123174726D01*
X160967041Y-123318845D01*
X161017014Y-123480332D01*
X161052998Y-123659059D01*
X161074943Y-123854895D01*
X161080700Y-124010934D01*
X161082794Y-124067711D01*
G36*
X161082794Y-124067711D02*
G01*
X161082068Y-124145158D01*
X161073489Y-124296594D01*
X161054633Y-124433283D01*
X161024637Y-124559276D01*
X160982636Y-124678625D01*
X160927769Y-124795381D01*
X160860967Y-124906179D01*
X160770163Y-125019739D01*
X160666508Y-125115211D01*
X160550687Y-125192073D01*
X160423386Y-125249797D01*
X160285289Y-125287858D01*
X160247593Y-125293666D01*
X160168552Y-125299396D01*
X160080429Y-125299583D01*
X159991036Y-125294539D01*
X159908184Y-125284578D01*
X159839687Y-125270012D01*
X159808835Y-125260364D01*
X159731530Y-125230123D01*
X159654479Y-125192617D01*
X159585000Y-125151614D01*
X159530415Y-125110879D01*
X159507716Y-125091505D01*
X159485001Y-125073662D01*
X159473579Y-125066778D01*
X159472337Y-125068424D01*
X159469528Y-125086205D01*
X159467576Y-125119370D01*
X159466845Y-125162733D01*
X159466845Y-125258689D01*
X158608696Y-125258689D01*
X158642961Y-125197974D01*
X158648155Y-125188868D01*
X158656515Y-125174249D01*
X158664088Y-125160173D01*
X158670912Y-125145540D01*
X158677027Y-125129249D01*
X158682473Y-125110198D01*
X158687287Y-125087286D01*
X158691508Y-125059413D01*
X158695177Y-125025478D01*
X158698331Y-124984379D01*
X158701011Y-124935015D01*
X158703254Y-124876286D01*
X158705099Y-124807090D01*
X158706587Y-124726326D01*
X158707755Y-124632894D01*
X158708644Y-124525692D01*
X158709291Y-124403620D01*
X158709736Y-124265576D01*
X158710018Y-124110459D01*
X158710175Y-123937168D01*
X158710248Y-123744603D01*
X158710274Y-123531662D01*
X158710285Y-123395530D01*
X159512000Y-123395530D01*
X159512000Y-124545721D01*
X159582556Y-124592089D01*
X159623217Y-124615791D01*
X159677346Y-124641639D01*
X159726489Y-124659829D01*
X159789965Y-124675551D01*
X159886131Y-124686541D01*
X159970700Y-124678365D01*
X160044019Y-124650805D01*
X160106437Y-124603642D01*
X160158302Y-124536658D01*
X160199960Y-124449633D01*
X160231762Y-124342350D01*
X160234345Y-124330009D01*
X160242800Y-124268772D01*
X160248463Y-124191692D01*
X160251376Y-124104002D01*
X160251583Y-124010934D01*
X160249130Y-123917720D01*
X160244061Y-123829594D01*
X160236419Y-123751788D01*
X160226248Y-123689533D01*
X160224967Y-123683666D01*
X160195926Y-123573121D01*
X160161410Y-123482575D01*
X160120256Y-123409953D01*
X160071299Y-123353181D01*
X160013374Y-123310184D01*
X159981420Y-123294615D01*
X159908584Y-123275722D01*
X159827243Y-123272465D01*
X159742119Y-123284389D01*
X159657933Y-123311040D01*
X159579408Y-123351962D01*
X159512000Y-123395530D01*
X158710285Y-123395530D01*
X158710293Y-123297245D01*
X158710489Y-121612378D01*
X159615817Y-121612378D01*
X159591385Y-121649067D01*
X159585118Y-121658647D01*
X159559008Y-121704981D01*
X159541269Y-121752102D01*
X159529708Y-121807251D01*
X159522131Y-121877667D01*
X159521639Y-121884650D01*
X159519862Y-121922641D01*
X159518244Y-121976576D01*
X159516799Y-122043703D01*
X159515540Y-122121271D01*
X159514480Y-122206528D01*
X159513629Y-122296724D01*
X159513003Y-122389107D01*
X159512612Y-122480925D01*
X159512470Y-122569427D01*
X159512590Y-122651862D01*
X159512983Y-122725479D01*
X159513662Y-122787526D01*
X159514641Y-122835251D01*
X159515932Y-122865904D01*
X159517547Y-122876733D01*
X159525757Y-122872333D01*
X159547447Y-122857362D01*
X159576814Y-122835448D01*
X159625679Y-122801236D01*
X159713925Y-122754714D01*
X159812716Y-122721046D01*
X159925310Y-122699231D01*
X160054964Y-122688265D01*
X160147470Y-122687219D01*
X160268811Y-122697014D01*
X160378899Y-122721174D01*
X160482189Y-122760785D01*
X160583138Y-122816932D01*
X160628303Y-122847883D01*
X160733711Y-122939115D01*
X160825338Y-123048106D01*
X160903132Y-123174726D01*
X160967041Y-123318845D01*
X161017014Y-123480332D01*
X161052998Y-123659059D01*
X161074943Y-123854895D01*
X161080700Y-124010934D01*
X161082794Y-124067711D01*
G37*
X163624555Y-124468467D02*
X163624061Y-124502363D01*
X163620432Y-124577202D01*
X163612822Y-124639401D01*
X163600488Y-124695984D01*
X163556113Y-124822076D01*
X163493200Y-124936679D01*
X163413038Y-125037568D01*
X163316540Y-125123924D01*
X163204622Y-125194932D01*
X163078197Y-125249776D01*
X162938178Y-125287638D01*
X162901949Y-125293351D01*
X162822955Y-125299313D01*
X162734641Y-125299646D01*
X162644875Y-125294659D01*
X162561522Y-125284666D01*
X162492451Y-125269978D01*
X162405987Y-125239749D01*
X162296086Y-125185057D01*
X162198756Y-125117543D01*
X162136667Y-125066556D01*
X162133405Y-125162622D01*
X162130143Y-125258689D01*
X161707250Y-125258689D01*
X161696343Y-125258686D01*
X161601856Y-125258380D01*
X161515131Y-125257616D01*
X161438637Y-125256451D01*
X161374843Y-125254942D01*
X161326218Y-125253147D01*
X161295233Y-125251121D01*
X161284356Y-125248922D01*
X161284378Y-125248463D01*
X161291414Y-125232910D01*
X161307234Y-125210071D01*
X161311534Y-125204638D01*
X161322577Y-125190606D01*
X161332111Y-125177186D01*
X161340261Y-125162722D01*
X161347152Y-125145556D01*
X161352911Y-125124034D01*
X161357662Y-125096498D01*
X161361531Y-125061292D01*
X161364644Y-125016760D01*
X161367125Y-124961246D01*
X161369100Y-124893093D01*
X161370694Y-124810645D01*
X161372034Y-124712246D01*
X161373244Y-124596239D01*
X161374449Y-124460968D01*
X161375395Y-124349586D01*
X162176178Y-124349586D01*
X162176178Y-124545462D01*
X162220848Y-124601973D01*
X162233585Y-124617212D01*
X162280404Y-124659844D01*
X162341055Y-124695672D01*
X162351697Y-124700850D01*
X162390476Y-124717745D01*
X162425492Y-124727909D01*
X162465522Y-124733325D01*
X162519341Y-124735978D01*
X162537448Y-124736383D01*
X162612811Y-124733540D01*
X162673543Y-124721620D01*
X162725252Y-124699037D01*
X162773546Y-124664211D01*
X162778603Y-124659798D01*
X162827072Y-124604160D01*
X162855259Y-124540333D01*
X162864552Y-124465282D01*
X162857320Y-124393693D01*
X162832596Y-124330645D01*
X162788049Y-124272758D01*
X162733119Y-124225808D01*
X162660694Y-124185961D01*
X162574140Y-124158263D01*
X162471470Y-124142096D01*
X162350694Y-124136842D01*
X162341807Y-124136857D01*
X162286460Y-124137655D01*
X162239536Y-124139488D01*
X162205753Y-124142111D01*
X162189828Y-124145274D01*
X162185743Y-124151741D01*
X162181372Y-124173875D01*
X162178404Y-124212988D01*
X162176714Y-124270939D01*
X162176178Y-124349586D01*
X161375395Y-124349586D01*
X161375775Y-124304778D01*
X161377028Y-124162012D01*
X161378451Y-124016942D01*
X161379976Y-123891027D01*
X161381733Y-123782436D01*
X161383851Y-123689334D01*
X161386460Y-123609891D01*
X161389690Y-123542273D01*
X161393669Y-123484649D01*
X161398528Y-123435185D01*
X161404397Y-123392050D01*
X161411404Y-123353410D01*
X161419680Y-123317434D01*
X161429354Y-123282289D01*
X161440556Y-123246142D01*
X161453416Y-123207161D01*
X161468890Y-123164091D01*
X161511794Y-123071871D01*
X161565535Y-122992099D01*
X161634376Y-122917965D01*
X161711985Y-122854405D01*
X161816561Y-122792725D01*
X161936044Y-122745202D01*
X162071308Y-122711567D01*
X162223226Y-122691552D01*
X162392672Y-122684889D01*
X162450690Y-122685287D01*
X162516198Y-122687335D01*
X162577493Y-122691704D01*
X162638897Y-122699035D01*
X162704732Y-122709969D01*
X162779320Y-122725147D01*
X162866984Y-122745209D01*
X162972045Y-122770797D01*
X163000606Y-122777820D01*
X163075854Y-122795776D01*
X163146188Y-122811820D01*
X163207367Y-122825028D01*
X163255154Y-122834474D01*
X163285311Y-122839231D01*
X163313583Y-122842910D01*
X163339860Y-122848187D01*
X163349859Y-122852942D01*
X163346752Y-122861781D01*
X163335994Y-122889072D01*
X163318664Y-122931906D01*
X163295926Y-122987425D01*
X163268947Y-123052772D01*
X163238890Y-123125089D01*
X163232293Y-123140879D01*
X163193707Y-123231484D01*
X163162568Y-123301217D01*
X163138717Y-123350405D01*
X163121998Y-123379374D01*
X163112254Y-123388452D01*
X163104566Y-123386405D01*
X163078215Y-123376760D01*
X163039782Y-123361190D01*
X162994622Y-123341815D01*
X162900093Y-123303814D01*
X162763280Y-123262780D01*
X162622089Y-123237612D01*
X162584114Y-123233611D01*
X162480859Y-123231447D01*
X162393752Y-123244622D01*
X162321929Y-123273756D01*
X162264531Y-123319466D01*
X162220696Y-123382372D01*
X162189562Y-123463092D01*
X162170270Y-123562245D01*
X162162850Y-123621224D01*
X162324736Y-123614445D01*
X162451295Y-123612813D01*
X162602751Y-123619194D01*
X162751196Y-123633777D01*
X162887378Y-123655882D01*
X162952045Y-123670821D01*
X163084290Y-123713741D01*
X163206562Y-123770340D01*
X163316485Y-123839017D01*
X163411683Y-123918170D01*
X163489780Y-124006196D01*
X163548399Y-124101493D01*
X163572395Y-124153864D01*
X163598032Y-124224590D01*
X163614278Y-124295812D01*
X163622622Y-124374712D01*
X163624490Y-124465282D01*
X163624555Y-124468467D01*
G36*
X163624555Y-124468467D02*
G01*
X163624061Y-124502363D01*
X163620432Y-124577202D01*
X163612822Y-124639401D01*
X163600488Y-124695984D01*
X163556113Y-124822076D01*
X163493200Y-124936679D01*
X163413038Y-125037568D01*
X163316540Y-125123924D01*
X163204622Y-125194932D01*
X163078197Y-125249776D01*
X162938178Y-125287638D01*
X162901949Y-125293351D01*
X162822955Y-125299313D01*
X162734641Y-125299646D01*
X162644875Y-125294659D01*
X162561522Y-125284666D01*
X162492451Y-125269978D01*
X162405987Y-125239749D01*
X162296086Y-125185057D01*
X162198756Y-125117543D01*
X162136667Y-125066556D01*
X162133405Y-125162622D01*
X162130143Y-125258689D01*
X161707250Y-125258689D01*
X161696343Y-125258686D01*
X161601856Y-125258380D01*
X161515131Y-125257616D01*
X161438637Y-125256451D01*
X161374843Y-125254942D01*
X161326218Y-125253147D01*
X161295233Y-125251121D01*
X161284356Y-125248922D01*
X161284378Y-125248463D01*
X161291414Y-125232910D01*
X161307234Y-125210071D01*
X161311534Y-125204638D01*
X161322577Y-125190606D01*
X161332111Y-125177186D01*
X161340261Y-125162722D01*
X161347152Y-125145556D01*
X161352911Y-125124034D01*
X161357662Y-125096498D01*
X161361531Y-125061292D01*
X161364644Y-125016760D01*
X161367125Y-124961246D01*
X161369100Y-124893093D01*
X161370694Y-124810645D01*
X161372034Y-124712246D01*
X161373244Y-124596239D01*
X161374449Y-124460968D01*
X161375395Y-124349586D01*
X162176178Y-124349586D01*
X162176178Y-124545462D01*
X162220848Y-124601973D01*
X162233585Y-124617212D01*
X162280404Y-124659844D01*
X162341055Y-124695672D01*
X162351697Y-124700850D01*
X162390476Y-124717745D01*
X162425492Y-124727909D01*
X162465522Y-124733325D01*
X162519341Y-124735978D01*
X162537448Y-124736383D01*
X162612811Y-124733540D01*
X162673543Y-124721620D01*
X162725252Y-124699037D01*
X162773546Y-124664211D01*
X162778603Y-124659798D01*
X162827072Y-124604160D01*
X162855259Y-124540333D01*
X162864552Y-124465282D01*
X162857320Y-124393693D01*
X162832596Y-124330645D01*
X162788049Y-124272758D01*
X162733119Y-124225808D01*
X162660694Y-124185961D01*
X162574140Y-124158263D01*
X162471470Y-124142096D01*
X162350694Y-124136842D01*
X162341807Y-124136857D01*
X162286460Y-124137655D01*
X162239536Y-124139488D01*
X162205753Y-124142111D01*
X162189828Y-124145274D01*
X162185743Y-124151741D01*
X162181372Y-124173875D01*
X162178404Y-124212988D01*
X162176714Y-124270939D01*
X162176178Y-124349586D01*
X161375395Y-124349586D01*
X161375775Y-124304778D01*
X161377028Y-124162012D01*
X161378451Y-124016942D01*
X161379976Y-123891027D01*
X161381733Y-123782436D01*
X161383851Y-123689334D01*
X161386460Y-123609891D01*
X161389690Y-123542273D01*
X161393669Y-123484649D01*
X161398528Y-123435185D01*
X161404397Y-123392050D01*
X161411404Y-123353410D01*
X161419680Y-123317434D01*
X161429354Y-123282289D01*
X161440556Y-123246142D01*
X161453416Y-123207161D01*
X161468890Y-123164091D01*
X161511794Y-123071871D01*
X161565535Y-122992099D01*
X161634376Y-122917965D01*
X161711985Y-122854405D01*
X161816561Y-122792725D01*
X161936044Y-122745202D01*
X162071308Y-122711567D01*
X162223226Y-122691552D01*
X162392672Y-122684889D01*
X162450690Y-122685287D01*
X162516198Y-122687335D01*
X162577493Y-122691704D01*
X162638897Y-122699035D01*
X162704732Y-122709969D01*
X162779320Y-122725147D01*
X162866984Y-122745209D01*
X162972045Y-122770797D01*
X163000606Y-122777820D01*
X163075854Y-122795776D01*
X163146188Y-122811820D01*
X163207367Y-122825028D01*
X163255154Y-122834474D01*
X163285311Y-122839231D01*
X163313583Y-122842910D01*
X163339860Y-122848187D01*
X163349859Y-122852942D01*
X163346752Y-122861781D01*
X163335994Y-122889072D01*
X163318664Y-122931906D01*
X163295926Y-122987425D01*
X163268947Y-123052772D01*
X163238890Y-123125089D01*
X163232293Y-123140879D01*
X163193707Y-123231484D01*
X163162568Y-123301217D01*
X163138717Y-123350405D01*
X163121998Y-123379374D01*
X163112254Y-123388452D01*
X163104566Y-123386405D01*
X163078215Y-123376760D01*
X163039782Y-123361190D01*
X162994622Y-123341815D01*
X162900093Y-123303814D01*
X162763280Y-123262780D01*
X162622089Y-123237612D01*
X162584114Y-123233611D01*
X162480859Y-123231447D01*
X162393752Y-123244622D01*
X162321929Y-123273756D01*
X162264531Y-123319466D01*
X162220696Y-123382372D01*
X162189562Y-123463092D01*
X162170270Y-123562245D01*
X162162850Y-123621224D01*
X162324736Y-123614445D01*
X162451295Y-123612813D01*
X162602751Y-123619194D01*
X162751196Y-123633777D01*
X162887378Y-123655882D01*
X162952045Y-123670821D01*
X163084290Y-123713741D01*
X163206562Y-123770340D01*
X163316485Y-123839017D01*
X163411683Y-123918170D01*
X163489780Y-124006196D01*
X163548399Y-124101493D01*
X163572395Y-124153864D01*
X163598032Y-124224590D01*
X163614278Y-124295812D01*
X163622622Y-124374712D01*
X163624490Y-124465282D01*
X163624555Y-124468467D01*
G37*
X171172414Y-121936792D02*
X171172859Y-122068011D01*
X171173162Y-122215216D01*
X171173348Y-122379349D01*
X171173442Y-122561352D01*
X171173471Y-122762165D01*
X171173461Y-122982732D01*
X171173436Y-123223992D01*
X171173422Y-123486889D01*
X171173422Y-123529040D01*
X171173446Y-123789668D01*
X171173485Y-124028796D01*
X171173508Y-124247360D01*
X171173487Y-124446295D01*
X171173393Y-124626535D01*
X171173195Y-124789015D01*
X171172863Y-124934670D01*
X171172369Y-125064434D01*
X171171683Y-125179243D01*
X171170776Y-125280030D01*
X171169617Y-125367730D01*
X171168178Y-125443279D01*
X171166429Y-125507611D01*
X171164340Y-125561661D01*
X171161883Y-125606363D01*
X171159027Y-125642652D01*
X171155743Y-125671463D01*
X171152002Y-125693731D01*
X171147774Y-125710390D01*
X171143029Y-125722375D01*
X171137739Y-125730621D01*
X171131873Y-125736062D01*
X171125402Y-125739634D01*
X171118297Y-125742270D01*
X171110528Y-125744906D01*
X171102066Y-125748477D01*
X171097708Y-125750145D01*
X171089195Y-125752111D01*
X171076494Y-125753911D01*
X171058685Y-125755555D01*
X171034849Y-125757047D01*
X171004066Y-125758397D01*
X170965417Y-125759611D01*
X170917982Y-125760697D01*
X170860843Y-125761661D01*
X170793079Y-125762511D01*
X170713771Y-125763253D01*
X170621999Y-125763897D01*
X170516844Y-125764447D01*
X170397387Y-125764913D01*
X170262708Y-125765300D01*
X170111888Y-125765616D01*
X169944006Y-125765869D01*
X169758145Y-125766066D01*
X169553383Y-125766213D01*
X169328802Y-125766318D01*
X169083482Y-125766389D01*
X168816504Y-125766432D01*
X168778121Y-125766437D01*
X168512722Y-125766480D01*
X168268850Y-125766525D01*
X168045583Y-125766548D01*
X167841996Y-125766524D01*
X167657167Y-125766430D01*
X167490173Y-125766243D01*
X167340090Y-125765939D01*
X167205996Y-125765494D01*
X167086966Y-125764885D01*
X166982079Y-125764089D01*
X166890410Y-125763080D01*
X166811037Y-125761837D01*
X166743037Y-125760335D01*
X166685486Y-125758551D01*
X166637462Y-125756461D01*
X166598040Y-125754042D01*
X166566299Y-125751270D01*
X166541314Y-125748121D01*
X166522164Y-125744572D01*
X166507923Y-125740598D01*
X166497671Y-125736178D01*
X166490482Y-125731286D01*
X166485435Y-125725900D01*
X166481605Y-125719996D01*
X166478071Y-125713549D01*
X166473908Y-125706537D01*
X166472825Y-125704687D01*
X166470613Y-125699180D01*
X166468586Y-125690868D01*
X166466738Y-125678809D01*
X166465061Y-125662063D01*
X166463545Y-125639687D01*
X166462183Y-125610740D01*
X166460967Y-125574280D01*
X166459889Y-125529367D01*
X166458940Y-125475057D01*
X166458112Y-125410410D01*
X166457397Y-125334484D01*
X166456787Y-125246338D01*
X166456742Y-125237493D01*
X166748178Y-125237493D01*
X166752060Y-125238765D01*
X166775320Y-125240791D01*
X166817674Y-125242626D01*
X166876932Y-125244227D01*
X166950907Y-125245549D01*
X167037410Y-125246548D01*
X167134252Y-125247180D01*
X167239245Y-125247400D01*
X167937451Y-125247400D01*
X169091890Y-125247400D01*
X169091256Y-125171200D01*
X169092374Y-125129160D01*
X169098104Y-125093334D01*
X169110690Y-125055772D01*
X169132368Y-125007577D01*
X169135589Y-125000897D01*
X169160988Y-124951359D01*
X169187796Y-124903369D01*
X169210717Y-124866466D01*
X169215285Y-124859834D01*
X169237316Y-124828593D01*
X169269493Y-124783654D01*
X169310257Y-124727147D01*
X169358045Y-124661204D01*
X169411298Y-124587957D01*
X169468455Y-124509536D01*
X169527955Y-124428072D01*
X169588237Y-124345698D01*
X169647740Y-124264544D01*
X169704905Y-124186742D01*
X169758170Y-124114423D01*
X169805974Y-124049718D01*
X169846757Y-123994759D01*
X169878958Y-123951676D01*
X169901016Y-123922602D01*
X169911371Y-123909667D01*
X169915844Y-123905351D01*
X169920036Y-123903312D01*
X169923443Y-123905926D01*
X169926125Y-123914986D01*
X169928141Y-123932285D01*
X169929548Y-123959614D01*
X169930405Y-123998765D01*
X169930770Y-124051533D01*
X169930703Y-124119707D01*
X169930260Y-124205082D01*
X169929502Y-124309449D01*
X169928485Y-124434600D01*
X169928108Y-124479300D01*
X169926969Y-124600395D01*
X169925772Y-124701688D01*
X169924436Y-124785262D01*
X169922877Y-124853204D01*
X169921015Y-124907599D01*
X169918766Y-124950532D01*
X169916048Y-124984089D01*
X169912779Y-125010355D01*
X169908878Y-125031416D01*
X169904261Y-125049357D01*
X169895992Y-125075770D01*
X169872383Y-125137772D01*
X169846485Y-125190573D01*
X169821335Y-125227645D01*
X169820139Y-125229075D01*
X169817968Y-125233424D01*
X169820128Y-125237026D01*
X169828444Y-125239951D01*
X169844740Y-125242269D01*
X169870841Y-125244051D01*
X169908571Y-125245367D01*
X169959756Y-125246286D01*
X170026220Y-125246878D01*
X170109787Y-125247215D01*
X170212283Y-125247365D01*
X170335532Y-125247400D01*
X170867096Y-125247400D01*
X170828323Y-125189783D01*
X170822232Y-125180893D01*
X170811776Y-125166069D01*
X170802379Y-125152422D01*
X170793983Y-125138765D01*
X170786533Y-125123911D01*
X170779973Y-125106670D01*
X170774246Y-125085855D01*
X170769295Y-125060280D01*
X170765066Y-125028755D01*
X170761501Y-124990093D01*
X170758544Y-124943107D01*
X170756140Y-124886608D01*
X170754231Y-124819409D01*
X170752762Y-124740322D01*
X170751676Y-124648160D01*
X170750918Y-124541734D01*
X170750430Y-124419857D01*
X170750158Y-124281341D01*
X170750043Y-124124999D01*
X170750031Y-123949642D01*
X170750065Y-123754082D01*
X170750089Y-123537133D01*
X170750080Y-123414513D01*
X170750043Y-123209447D01*
X170750027Y-123025116D01*
X170750088Y-122860334D01*
X170750284Y-122713916D01*
X170750670Y-122584674D01*
X170751305Y-122471422D01*
X170752244Y-122372975D01*
X170753545Y-122288144D01*
X170755264Y-122215744D01*
X170757459Y-122154589D01*
X170760185Y-122103492D01*
X170763501Y-122061267D01*
X170767462Y-122026727D01*
X170772125Y-121998686D01*
X170777547Y-121975958D01*
X170783786Y-121957356D01*
X170790897Y-121941693D01*
X170798938Y-121927784D01*
X170807966Y-121914441D01*
X170818036Y-121900479D01*
X170829207Y-121884711D01*
X170868997Y-121826867D01*
X169809114Y-121826867D01*
X169847111Y-121889966D01*
X169861793Y-121915005D01*
X169876331Y-121942586D01*
X169888427Y-121970700D01*
X169898332Y-122001551D01*
X169906294Y-122037344D01*
X169912561Y-122080283D01*
X169917382Y-122132574D01*
X169921006Y-122196419D01*
X169923681Y-122274025D01*
X169925657Y-122367594D01*
X169927182Y-122479333D01*
X169928504Y-122611445D01*
X169929413Y-122731434D01*
X169929820Y-122848063D01*
X169929567Y-122943531D01*
X169928657Y-123017556D01*
X169927093Y-123069855D01*
X169924879Y-123100149D01*
X169922020Y-123108156D01*
X169918961Y-123104858D01*
X169900806Y-123083408D01*
X169871075Y-123046889D01*
X169831439Y-122997442D01*
X169783571Y-122937207D01*
X169729143Y-122868327D01*
X169669827Y-122792943D01*
X169607295Y-122713196D01*
X169543221Y-122631228D01*
X169479275Y-122549180D01*
X169417131Y-122469194D01*
X169358461Y-122393411D01*
X169304937Y-122323973D01*
X169258230Y-122263021D01*
X169220014Y-122212696D01*
X169191961Y-122175140D01*
X169175743Y-122152495D01*
X169130435Y-122080212D01*
X169090461Y-122000463D01*
X169068930Y-121932188D01*
X169065627Y-121874844D01*
X169070916Y-121826867D01*
X167939156Y-121827117D01*
X167978667Y-121857722D01*
X167988048Y-121865089D01*
X168050983Y-121919438D01*
X168119797Y-121987259D01*
X168196396Y-122070516D01*
X168282688Y-122171178D01*
X168299852Y-122191847D01*
X168340633Y-122241409D01*
X168390388Y-122302326D01*
X168447755Y-122372898D01*
X168511369Y-122451424D01*
X168579869Y-122536204D01*
X168651890Y-122625537D01*
X168726070Y-122717722D01*
X168741317Y-122736702D01*
X168801046Y-122811060D01*
X168875453Y-122903848D01*
X168947931Y-122994388D01*
X169017114Y-123080978D01*
X169081641Y-123161918D01*
X169140147Y-123235506D01*
X169191270Y-123300044D01*
X169233647Y-123353829D01*
X169265915Y-123395162D01*
X169286710Y-123422342D01*
X169294669Y-123433668D01*
X169292911Y-123437771D01*
X169280030Y-123458334D01*
X169255685Y-123494561D01*
X169221047Y-123544824D01*
X169177286Y-123607492D01*
X169125575Y-123680936D01*
X169067084Y-123763527D01*
X169002984Y-123853636D01*
X168934446Y-123949631D01*
X168862643Y-124049885D01*
X168788744Y-124152768D01*
X168713921Y-124256650D01*
X168639345Y-124359901D01*
X168566187Y-124460892D01*
X168495619Y-124557994D01*
X168428811Y-124649577D01*
X168366935Y-124734011D01*
X168311161Y-124809667D01*
X168262662Y-124874916D01*
X168222607Y-124928128D01*
X168192169Y-124967673D01*
X168171744Y-124993026D01*
X168125699Y-125047295D01*
X168075412Y-125103775D01*
X168028615Y-125153669D01*
X167937451Y-125247400D01*
X167239245Y-125247400D01*
X167308156Y-125247349D01*
X167406407Y-125247091D01*
X167495830Y-125246637D01*
X167574133Y-125246010D01*
X167639023Y-125245235D01*
X167688211Y-125244335D01*
X167719404Y-125243334D01*
X167730311Y-125242257D01*
X167729122Y-125239037D01*
X167718976Y-125221452D01*
X167701840Y-125195158D01*
X167693340Y-125182691D01*
X167684129Y-125168622D01*
X167676033Y-125154351D01*
X167668985Y-125138479D01*
X167662917Y-125119609D01*
X167657761Y-125096341D01*
X167653451Y-125067278D01*
X167649919Y-125031021D01*
X167647097Y-124986170D01*
X167644918Y-124931328D01*
X167643314Y-124865097D01*
X167642219Y-124786077D01*
X167641565Y-124692871D01*
X167641284Y-124584079D01*
X167641309Y-124458303D01*
X167641572Y-124314145D01*
X167642006Y-124150207D01*
X167642545Y-123965089D01*
X167643079Y-123786232D01*
X167643605Y-123627374D01*
X167644150Y-123488316D01*
X167644745Y-123367665D01*
X167645419Y-123264028D01*
X167646203Y-123176011D01*
X167647126Y-123102223D01*
X167648219Y-123041269D01*
X167649512Y-122991757D01*
X167651035Y-122952293D01*
X167652819Y-122921484D01*
X167654892Y-122897938D01*
X167657286Y-122880260D01*
X167660030Y-122867059D01*
X167663156Y-122856940D01*
X167666692Y-122848511D01*
X167670591Y-122840375D01*
X167690238Y-122803544D01*
X167709025Y-122773391D01*
X167710072Y-122771908D01*
X167724402Y-122749659D01*
X167730311Y-122736702D01*
X167729304Y-122736249D01*
X167712105Y-122734803D01*
X167675456Y-122733480D01*
X167621762Y-122732316D01*
X167553430Y-122731347D01*
X167472864Y-122730611D01*
X167382470Y-122730142D01*
X167284653Y-122729978D01*
X166838995Y-122729978D01*
X166835920Y-123906845D01*
X166832845Y-125083711D01*
X166806207Y-125142622D01*
X166794285Y-125167183D01*
X166777046Y-125197434D01*
X166763874Y-125214560D01*
X166755876Y-125222591D01*
X166748178Y-125237493D01*
X166456742Y-125237493D01*
X166456274Y-125145029D01*
X166455850Y-125029617D01*
X166455506Y-124899160D01*
X166455234Y-124752716D01*
X166455027Y-124589344D01*
X166454876Y-124408101D01*
X166454772Y-124208048D01*
X166454708Y-123988241D01*
X166454676Y-123747739D01*
X166454667Y-123485602D01*
X166454667Y-121294031D01*
X166493049Y-121255649D01*
X166520155Y-121231911D01*
X166547053Y-121220111D01*
X166583360Y-121217267D01*
X166635289Y-121217267D01*
X166635289Y-121305206D01*
X166637227Y-121355102D01*
X166655999Y-121465523D01*
X166693017Y-121566987D01*
X166746169Y-121658152D01*
X166813346Y-121737673D01*
X166892438Y-121804205D01*
X166981334Y-121856406D01*
X167077925Y-121892930D01*
X167180100Y-121912434D01*
X167285750Y-121913573D01*
X167392764Y-121895005D01*
X167499032Y-121855384D01*
X167596019Y-121797516D01*
X167681093Y-121722684D01*
X167749815Y-121634615D01*
X167800718Y-121535616D01*
X167832335Y-121427993D01*
X167843200Y-121314054D01*
X167843200Y-121217267D01*
X169463553Y-121217267D01*
X169674697Y-121217280D01*
X169878820Y-121217330D01*
X170062486Y-121217430D01*
X170226791Y-121217592D01*
X170372829Y-121217829D01*
X170501694Y-121218153D01*
X170614483Y-121218575D01*
X170712288Y-121219109D01*
X170796204Y-121219767D01*
X170867327Y-121220561D01*
X170926750Y-121221504D01*
X170975568Y-121222608D01*
X171014877Y-121223884D01*
X171045769Y-121225347D01*
X171069341Y-121227007D01*
X171086686Y-121228878D01*
X171098899Y-121230972D01*
X171107075Y-121233300D01*
X171112308Y-121235876D01*
X171118304Y-121239445D01*
X171125079Y-121242978D01*
X171131278Y-121246488D01*
X171136926Y-121250918D01*
X171142047Y-121257208D01*
X171146669Y-121266301D01*
X171150815Y-121279139D01*
X171154513Y-121296662D01*
X171157787Y-121319813D01*
X171160663Y-121349534D01*
X171163167Y-121386765D01*
X171165324Y-121432449D01*
X171167160Y-121487527D01*
X171168700Y-121552941D01*
X171169970Y-121629633D01*
X171170995Y-121718544D01*
X171171801Y-121820617D01*
X171171834Y-121826867D01*
X171172414Y-121936792D01*
G36*
X171172414Y-121936792D02*
G01*
X171172859Y-122068011D01*
X171173162Y-122215216D01*
X171173348Y-122379349D01*
X171173442Y-122561352D01*
X171173471Y-122762165D01*
X171173461Y-122982732D01*
X171173436Y-123223992D01*
X171173422Y-123486889D01*
X171173422Y-123529040D01*
X171173446Y-123789668D01*
X171173485Y-124028796D01*
X171173508Y-124247360D01*
X171173487Y-124446295D01*
X171173393Y-124626535D01*
X171173195Y-124789015D01*
X171172863Y-124934670D01*
X171172369Y-125064434D01*
X171171683Y-125179243D01*
X171170776Y-125280030D01*
X171169617Y-125367730D01*
X171168178Y-125443279D01*
X171166429Y-125507611D01*
X171164340Y-125561661D01*
X171161883Y-125606363D01*
X171159027Y-125642652D01*
X171155743Y-125671463D01*
X171152002Y-125693731D01*
X171147774Y-125710390D01*
X171143029Y-125722375D01*
X171137739Y-125730621D01*
X171131873Y-125736062D01*
X171125402Y-125739634D01*
X171118297Y-125742270D01*
X171110528Y-125744906D01*
X171102066Y-125748477D01*
X171097708Y-125750145D01*
X171089195Y-125752111D01*
X171076494Y-125753911D01*
X171058685Y-125755555D01*
X171034849Y-125757047D01*
X171004066Y-125758397D01*
X170965417Y-125759611D01*
X170917982Y-125760697D01*
X170860843Y-125761661D01*
X170793079Y-125762511D01*
X170713771Y-125763253D01*
X170621999Y-125763897D01*
X170516844Y-125764447D01*
X170397387Y-125764913D01*
X170262708Y-125765300D01*
X170111888Y-125765616D01*
X169944006Y-125765869D01*
X169758145Y-125766066D01*
X169553383Y-125766213D01*
X169328802Y-125766318D01*
X169083482Y-125766389D01*
X168816504Y-125766432D01*
X168778121Y-125766437D01*
X168512722Y-125766480D01*
X168268850Y-125766525D01*
X168045583Y-125766548D01*
X167841996Y-125766524D01*
X167657167Y-125766430D01*
X167490173Y-125766243D01*
X167340090Y-125765939D01*
X167205996Y-125765494D01*
X167086966Y-125764885D01*
X166982079Y-125764089D01*
X166890410Y-125763080D01*
X166811037Y-125761837D01*
X166743037Y-125760335D01*
X166685486Y-125758551D01*
X166637462Y-125756461D01*
X166598040Y-125754042D01*
X166566299Y-125751270D01*
X166541314Y-125748121D01*
X166522164Y-125744572D01*
X166507923Y-125740598D01*
X166497671Y-125736178D01*
X166490482Y-125731286D01*
X166485435Y-125725900D01*
X166481605Y-125719996D01*
X166478071Y-125713549D01*
X166473908Y-125706537D01*
X166472825Y-125704687D01*
X166470613Y-125699180D01*
X166468586Y-125690868D01*
X166466738Y-125678809D01*
X166465061Y-125662063D01*
X166463545Y-125639687D01*
X166462183Y-125610740D01*
X166460967Y-125574280D01*
X166459889Y-125529367D01*
X166458940Y-125475057D01*
X166458112Y-125410410D01*
X166457397Y-125334484D01*
X166456787Y-125246338D01*
X166456742Y-125237493D01*
X166748178Y-125237493D01*
X166752060Y-125238765D01*
X166775320Y-125240791D01*
X166817674Y-125242626D01*
X166876932Y-125244227D01*
X166950907Y-125245549D01*
X167037410Y-125246548D01*
X167134252Y-125247180D01*
X167239245Y-125247400D01*
X167937451Y-125247400D01*
X169091890Y-125247400D01*
X169091256Y-125171200D01*
X169092374Y-125129160D01*
X169098104Y-125093334D01*
X169110690Y-125055772D01*
X169132368Y-125007577D01*
X169135589Y-125000897D01*
X169160988Y-124951359D01*
X169187796Y-124903369D01*
X169210717Y-124866466D01*
X169215285Y-124859834D01*
X169237316Y-124828593D01*
X169269493Y-124783654D01*
X169310257Y-124727147D01*
X169358045Y-124661204D01*
X169411298Y-124587957D01*
X169468455Y-124509536D01*
X169527955Y-124428072D01*
X169588237Y-124345698D01*
X169647740Y-124264544D01*
X169704905Y-124186742D01*
X169758170Y-124114423D01*
X169805974Y-124049718D01*
X169846757Y-123994759D01*
X169878958Y-123951676D01*
X169901016Y-123922602D01*
X169911371Y-123909667D01*
X169915844Y-123905351D01*
X169920036Y-123903312D01*
X169923443Y-123905926D01*
X169926125Y-123914986D01*
X169928141Y-123932285D01*
X169929548Y-123959614D01*
X169930405Y-123998765D01*
X169930770Y-124051533D01*
X169930703Y-124119707D01*
X169930260Y-124205082D01*
X169929502Y-124309449D01*
X169928485Y-124434600D01*
X169928108Y-124479300D01*
X169926969Y-124600395D01*
X169925772Y-124701688D01*
X169924436Y-124785262D01*
X169922877Y-124853204D01*
X169921015Y-124907599D01*
X169918766Y-124950532D01*
X169916048Y-124984089D01*
X169912779Y-125010355D01*
X169908878Y-125031416D01*
X169904261Y-125049357D01*
X169895992Y-125075770D01*
X169872383Y-125137772D01*
X169846485Y-125190573D01*
X169821335Y-125227645D01*
X169820139Y-125229075D01*
X169817968Y-125233424D01*
X169820128Y-125237026D01*
X169828444Y-125239951D01*
X169844740Y-125242269D01*
X169870841Y-125244051D01*
X169908571Y-125245367D01*
X169959756Y-125246286D01*
X170026220Y-125246878D01*
X170109787Y-125247215D01*
X170212283Y-125247365D01*
X170335532Y-125247400D01*
X170867096Y-125247400D01*
X170828323Y-125189783D01*
X170822232Y-125180893D01*
X170811776Y-125166069D01*
X170802379Y-125152422D01*
X170793983Y-125138765D01*
X170786533Y-125123911D01*
X170779973Y-125106670D01*
X170774246Y-125085855D01*
X170769295Y-125060280D01*
X170765066Y-125028755D01*
X170761501Y-124990093D01*
X170758544Y-124943107D01*
X170756140Y-124886608D01*
X170754231Y-124819409D01*
X170752762Y-124740322D01*
X170751676Y-124648160D01*
X170750918Y-124541734D01*
X170750430Y-124419857D01*
X170750158Y-124281341D01*
X170750043Y-124124999D01*
X170750031Y-123949642D01*
X170750065Y-123754082D01*
X170750089Y-123537133D01*
X170750080Y-123414513D01*
X170750043Y-123209447D01*
X170750027Y-123025116D01*
X170750088Y-122860334D01*
X170750284Y-122713916D01*
X170750670Y-122584674D01*
X170751305Y-122471422D01*
X170752244Y-122372975D01*
X170753545Y-122288144D01*
X170755264Y-122215744D01*
X170757459Y-122154589D01*
X170760185Y-122103492D01*
X170763501Y-122061267D01*
X170767462Y-122026727D01*
X170772125Y-121998686D01*
X170777547Y-121975958D01*
X170783786Y-121957356D01*
X170790897Y-121941693D01*
X170798938Y-121927784D01*
X170807966Y-121914441D01*
X170818036Y-121900479D01*
X170829207Y-121884711D01*
X170868997Y-121826867D01*
X169809114Y-121826867D01*
X169847111Y-121889966D01*
X169861793Y-121915005D01*
X169876331Y-121942586D01*
X169888427Y-121970700D01*
X169898332Y-122001551D01*
X169906294Y-122037344D01*
X169912561Y-122080283D01*
X169917382Y-122132574D01*
X169921006Y-122196419D01*
X169923681Y-122274025D01*
X169925657Y-122367594D01*
X169927182Y-122479333D01*
X169928504Y-122611445D01*
X169929413Y-122731434D01*
X169929820Y-122848063D01*
X169929567Y-122943531D01*
X169928657Y-123017556D01*
X169927093Y-123069855D01*
X169924879Y-123100149D01*
X169922020Y-123108156D01*
X169918961Y-123104858D01*
X169900806Y-123083408D01*
X169871075Y-123046889D01*
X169831439Y-122997442D01*
X169783571Y-122937207D01*
X169729143Y-122868327D01*
X169669827Y-122792943D01*
X169607295Y-122713196D01*
X169543221Y-122631228D01*
X169479275Y-122549180D01*
X169417131Y-122469194D01*
X169358461Y-122393411D01*
X169304937Y-122323973D01*
X169258230Y-122263021D01*
X169220014Y-122212696D01*
X169191961Y-122175140D01*
X169175743Y-122152495D01*
X169130435Y-122080212D01*
X169090461Y-122000463D01*
X169068930Y-121932188D01*
X169065627Y-121874844D01*
X169070916Y-121826867D01*
X167939156Y-121827117D01*
X167978667Y-121857722D01*
X167988048Y-121865089D01*
X168050983Y-121919438D01*
X168119797Y-121987259D01*
X168196396Y-122070516D01*
X168282688Y-122171178D01*
X168299852Y-122191847D01*
X168340633Y-122241409D01*
X168390388Y-122302326D01*
X168447755Y-122372898D01*
X168511369Y-122451424D01*
X168579869Y-122536204D01*
X168651890Y-122625537D01*
X168726070Y-122717722D01*
X168741317Y-122736702D01*
X168801046Y-122811060D01*
X168875453Y-122903848D01*
X168947931Y-122994388D01*
X169017114Y-123080978D01*
X169081641Y-123161918D01*
X169140147Y-123235506D01*
X169191270Y-123300044D01*
X169233647Y-123353829D01*
X169265915Y-123395162D01*
X169286710Y-123422342D01*
X169294669Y-123433668D01*
X169292911Y-123437771D01*
X169280030Y-123458334D01*
X169255685Y-123494561D01*
X169221047Y-123544824D01*
X169177286Y-123607492D01*
X169125575Y-123680936D01*
X169067084Y-123763527D01*
X169002984Y-123853636D01*
X168934446Y-123949631D01*
X168862643Y-124049885D01*
X168788744Y-124152768D01*
X168713921Y-124256650D01*
X168639345Y-124359901D01*
X168566187Y-124460892D01*
X168495619Y-124557994D01*
X168428811Y-124649577D01*
X168366935Y-124734011D01*
X168311161Y-124809667D01*
X168262662Y-124874916D01*
X168222607Y-124928128D01*
X168192169Y-124967673D01*
X168171744Y-124993026D01*
X168125699Y-125047295D01*
X168075412Y-125103775D01*
X168028615Y-125153669D01*
X167937451Y-125247400D01*
X167239245Y-125247400D01*
X167308156Y-125247349D01*
X167406407Y-125247091D01*
X167495830Y-125246637D01*
X167574133Y-125246010D01*
X167639023Y-125245235D01*
X167688211Y-125244335D01*
X167719404Y-125243334D01*
X167730311Y-125242257D01*
X167729122Y-125239037D01*
X167718976Y-125221452D01*
X167701840Y-125195158D01*
X167693340Y-125182691D01*
X167684129Y-125168622D01*
X167676033Y-125154351D01*
X167668985Y-125138479D01*
X167662917Y-125119609D01*
X167657761Y-125096341D01*
X167653451Y-125067278D01*
X167649919Y-125031021D01*
X167647097Y-124986170D01*
X167644918Y-124931328D01*
X167643314Y-124865097D01*
X167642219Y-124786077D01*
X167641565Y-124692871D01*
X167641284Y-124584079D01*
X167641309Y-124458303D01*
X167641572Y-124314145D01*
X167642006Y-124150207D01*
X167642545Y-123965089D01*
X167643079Y-123786232D01*
X167643605Y-123627374D01*
X167644150Y-123488316D01*
X167644745Y-123367665D01*
X167645419Y-123264028D01*
X167646203Y-123176011D01*
X167647126Y-123102223D01*
X167648219Y-123041269D01*
X167649512Y-122991757D01*
X167651035Y-122952293D01*
X167652819Y-122921484D01*
X167654892Y-122897938D01*
X167657286Y-122880260D01*
X167660030Y-122867059D01*
X167663156Y-122856940D01*
X167666692Y-122848511D01*
X167670591Y-122840375D01*
X167690238Y-122803544D01*
X167709025Y-122773391D01*
X167710072Y-122771908D01*
X167724402Y-122749659D01*
X167730311Y-122736702D01*
X167729304Y-122736249D01*
X167712105Y-122734803D01*
X167675456Y-122733480D01*
X167621762Y-122732316D01*
X167553430Y-122731347D01*
X167472864Y-122730611D01*
X167382470Y-122730142D01*
X167284653Y-122729978D01*
X166838995Y-122729978D01*
X166835920Y-123906845D01*
X166832845Y-125083711D01*
X166806207Y-125142622D01*
X166794285Y-125167183D01*
X166777046Y-125197434D01*
X166763874Y-125214560D01*
X166755876Y-125222591D01*
X166748178Y-125237493D01*
X166456742Y-125237493D01*
X166456274Y-125145029D01*
X166455850Y-125029617D01*
X166455506Y-124899160D01*
X166455234Y-124752716D01*
X166455027Y-124589344D01*
X166454876Y-124408101D01*
X166454772Y-124208048D01*
X166454708Y-123988241D01*
X166454676Y-123747739D01*
X166454667Y-123485602D01*
X166454667Y-121294031D01*
X166493049Y-121255649D01*
X166520155Y-121231911D01*
X166547053Y-121220111D01*
X166583360Y-121217267D01*
X166635289Y-121217267D01*
X166635289Y-121305206D01*
X166637227Y-121355102D01*
X166655999Y-121465523D01*
X166693017Y-121566987D01*
X166746169Y-121658152D01*
X166813346Y-121737673D01*
X166892438Y-121804205D01*
X166981334Y-121856406D01*
X167077925Y-121892930D01*
X167180100Y-121912434D01*
X167285750Y-121913573D01*
X167392764Y-121895005D01*
X167499032Y-121855384D01*
X167596019Y-121797516D01*
X167681093Y-121722684D01*
X167749815Y-121634615D01*
X167800718Y-121535616D01*
X167832335Y-121427993D01*
X167843200Y-121314054D01*
X167843200Y-121217267D01*
X169463553Y-121217267D01*
X169674697Y-121217280D01*
X169878820Y-121217330D01*
X170062486Y-121217430D01*
X170226791Y-121217592D01*
X170372829Y-121217829D01*
X170501694Y-121218153D01*
X170614483Y-121218575D01*
X170712288Y-121219109D01*
X170796204Y-121219767D01*
X170867327Y-121220561D01*
X170926750Y-121221504D01*
X170975568Y-121222608D01*
X171014877Y-121223884D01*
X171045769Y-121225347D01*
X171069341Y-121227007D01*
X171086686Y-121228878D01*
X171098899Y-121230972D01*
X171107075Y-121233300D01*
X171112308Y-121235876D01*
X171118304Y-121239445D01*
X171125079Y-121242978D01*
X171131278Y-121246488D01*
X171136926Y-121250918D01*
X171142047Y-121257208D01*
X171146669Y-121266301D01*
X171150815Y-121279139D01*
X171154513Y-121296662D01*
X171157787Y-121319813D01*
X171160663Y-121349534D01*
X171163167Y-121386765D01*
X171165324Y-121432449D01*
X171167160Y-121487527D01*
X171168700Y-121552941D01*
X171169970Y-121629633D01*
X171170995Y-121718544D01*
X171171801Y-121820617D01*
X171171834Y-121826867D01*
X171172414Y-121936792D01*
G37*
%TD*%
M02*
